<svg xmlns="http://www.w3.org/2000/svg" viewBox="0 0 1536 1771.58"><defs><style>.cls-1{fill:#fff;}</style></defs><g id="Layer_2" data-name="Layer 2"><g id="Layer_1-2" data-name="Layer 1"><path class="cls-1" d="M237.17,561.73,28.37,441.16l502.33-290a5,5,0,0,1,.76-.47c57.68-28.37,144.59-26.77,199.34,4.82,57.78,33.38,58,87.38.66,120.66Z"/><path class="cls-1" d="M502.61,715,293.91,594.45,800.4,302.06c53.81-25.16,131.44-25.06,185.35.28l.28.19,20.9,12,.28.19c47.29,33.57,44.16,82.93-9.55,114.14Z"/><path class="cls-1" d="M768.34,868.41h-.09L559.45,747.84,1064.61,456.2l.85-.48c53.81-25.53,131.73-25.53,185.92,0l.76.38,20.14,11.63.57.38c47.28,33.48,44.16,82.84-9.65,114.14Z"/><path class="cls-1" d="M796.69,1771.58,1536,1344.72l-1.7-853.07.09-.19-56.64-32.73-208.9-120.57-56.74-32.72-208.7-120.57-56.84-32.72L737.77,31.58l-.37-.19-28-16.17L683.12,0,629.4,31l-2.93,1.7,26.29,15.22,28,16.18.29.18L889.93,184.87l56.64,32.72h.1l208.71,120.57L1212.11,371h.1L1421,491.55l28.65,16.55,28.09,16.17L796.69,917.47Zm81.14-360.76c0-16.27,11.44-36,25.62-44.26s25.63-1.61,25.63,14.75v.19c0,16.17-11.44,35.84-25.53,44S877.92,1427.08,877.83,1410.82Zm518.78-105.63-.19.19c-13.9,7.94-25.25,1.79-25.62-14l-.1-2.17c.66-16,11.92-34.9,25.63-42.75,13.9-8.13,25.25-1.79,25.62,14l.1,2.17C1421.39,1278.52,1410.23,1297.34,1396.61,1305.19Zm18.06-583.37.19,44.25,38.49-22.22.09,38.49L1415,804.56l.09,44.25-33.57,19.39-.09-44.26-38.49,22.23-.19-38.49,38.58-22.22-.19-44.26Zm-46.62,277.26.19,53.52,46.62-26.95.1,46.63-46.62,27,.19,53.52-40.67,23.45-.09-53.52-46.62,26.85-.19-46.62,46.62-26.85-.09-53.62Zm-200.19,180c0,16-11.07,35.36-24.78,43.78l-1.32.76c-13.9,7.66-25.16,1.13-25.16-14.94v-.19c0-16.27,11.44-35.93,25.54-44.07S1167.76,1162.77,1167.86,1179ZM1090.41,1328l.19,53.62,46.62-26.95.09,46.62-46.62,27,.19,53.52-40.66,23.45-.09-53.52-46.63,26.86-.19-46.63,46.63-26.85-.1-53.62Zm-71.49-377.31c13.61-7.57,24.77-1.33,25.06,14.27l.09,2.18c-.66,15.51-11.25,33.76-24.4,42l-2.45,1.42c-13.62,7-24.4.48-24.4-15.31V995a36.29,36.29,0,0,1,.28-4.54,47.76,47.76,0,0,1,.85-4.73,39.75,39.75,0,0,1,1.89-6.24,62.59,62.59,0,0,1,6-12c1.23-1.9,2.56-3.69,4-5.49s2.93-3.31,4.44-4.82a36.12,36.12,0,0,1,3.59-3.12,33.51,33.51,0,0,1,3.79-2.65ZM968.7,1071.61l.1,53.62,46.71-27,.1,46.62L969,1171.85l.09,53.53-40.57,23.45-.18-53.53-46.63,27-.09-46.62,46.62-27-.19-53.52Z"/><path class="cls-1" d="M740,917.48V1668.8a116.4,116.4,0,0,0-14.18-9.55c-53-30.64-136.27-33.09-193.77-7.37l-.94-.47V796.91Z"/><path class="cls-1" d="M474.34,764.2v751.22a127,127,0,0,0-14.09-9.46c-53.15-30.63-136.18-33.09-193.77-7.37l-.94-.57V643.62Z"/><path class="cls-1" d="M208.8,610.91v752.26a125.52,125.52,0,0,0-14.75-9.93c-52.77-30.45-135.33-33-192.82-7.85l-1-.57-.19-.09V490.33Z"/></g></g></svg>