<svg xmlns="http://www.w3.org/2000/svg" viewBox="0 0 1536 1771.56"><defs><style>.cls-1{fill:#fff;}</style></defs><g id="Layer_2" data-name="Layer 2"><g id="Layer_1-2" data-name="Layer 1"><path class="cls-1" d="M237.17,561.68,28.37,441.11l502.32-290a5.61,5.61,0,0,1,.76-.47c57.68-28.37,144.59-26.76,199.34,4.82,57.78,33.38,58,87.38.66,120.67Z"/><path class="cls-1" d="M502.61,715,293.9,594.4,800.39,302c53.81-25.16,131.44-25.06,185.34.28l.29.19,20.9,12,.28.19c47.28,33.57,44.16,82.93-9.55,114.14Z"/><path class="cls-1" d="M768.33,868.35h-.09L559.44,747.78,1064.6,456.15l.85-.48c53.81-25.53,131.73-25.53,185.91,0l.76.38,20.14,11.63.57.38c47.28,33.48,44.16,82.84-9.64,114.14Z"/><path class="cls-1" d="M796.7,1771.56,1536,1344.7l-1.7-853.06.09-.19-56.64-32.72L1268.86,338.16l-56.74-32.72-208.7-120.57-56.83-32.72L737.79,31.58l-.38-.19-28-16.17L683.13,0,629.42,31l-2.93,1.71,26.28,15.22,28,16.17.28.19L889.94,184.87l56.65,32.72h.09l208.7,120.57L1212.12,371h.1L1421,491.54l28.65,16.55,28.09,16.17-681,393.2Zm294.1-903.28c.09,32.35,21.84,37.55,57.68,42.28,36,4.73,76.78,10.11,77,70.54S1185,1094,1149.14,1140.16s-57.4,76.4-57.3,108.75l-40.29,23.26c-.19-60.52,40.47-112.91,76.41-159.15,35.65-46,57.3-76.32,57.21-108.66s-21.84-37.54-57.68-42.26c-36-4.73-76.79-10-77-70.55Zm-58.92,264.31c35.75-45.95,57.4-76.22,57.31-108.56l40.28-23.26c.19,60.52-40.47,112.81-76.31,159.06-35.75,46.05-57.4,76.31-57.31,108.65s21.85,37.54,57.78,42.27c12.77,1.7,25.82,3.4,37.55,7.57l50.11-68.18c3.31-57.12,41.8-106.86,76.13-150.93,35.65-46,57.4-76.4,57.3-108.65L1315,967.3c.19,60.42-40.57,112.81-76.41,159-32.72,42.27-53.62,71.21-56.74,100.62l55,12.86c.18-2.08.28-4.07.28-6.06-.19-60.52,40.47-112.81,76.31-159,35.75-46,57.4-76.31,57.31-108.75-.09-32.24-21.85-37.54-57.78-42.27s-76.79-10-76.88-70.55l40.19-23.26c.09,32.35,21.94,37.55,57.68,42.37,36,4.63,76.89,10.12,77.07,70.54s-40.57,112.82-76.4,159.15c-35.65,46-57.31,76.22-57.22,108.56a148.71,148.71,0,0,1-5.1,37.55l70.36,16.54-23.17,51.26-69.23-16.27-33.57-7.94-35.36-8.32-1.61,149.5-40.28,22.51,1.7-148.94-140.43,190.74-22.7-25.25,77.83-105.82c-7.19-1.61-15.23-2.64-23.36-3.69-36-4.73-76.78-10.21-77-70.63S996,1178.93,1031.88,1132.59Z"/><path class="cls-1" d="M740,917.43v751.31a116.4,116.4,0,0,0-14.18-9.55c-53-30.64-136.27-33.1-193.76-7.38l-.95-.47V796.86Z"/><path class="cls-1" d="M474.33,764.14v751.22a126,126,0,0,0-14.09-9.46c-53.14-30.64-136.17-33.1-193.76-7.38l-.94-.56V643.57Z"/><path class="cls-1" d="M208.8,610.85v752.26a125.52,125.52,0,0,0-14.75-9.93c-52.77-30.45-135.33-33-192.82-7.85l-1-.57-.19-.09V490.28Z"/><path class="cls-1" d="M237.17,561.68,28.37,441.11l502.32-290a5.61,5.61,0,0,1,.76-.47c57.68-28.37,144.59-26.76,199.34,4.82,57.78,33.38,58,87.38.66,120.67Z"/><path class="cls-1" d="M502.61,715,293.9,594.4,800.39,302c53.81-25.16,131.44-25.06,185.34.28l.29.19,20.9,12,.28.19c47.28,33.57,44.16,82.93-9.55,114.14Z"/><path class="cls-1" d="M768.33,868.35h-.09L559.44,747.78,1064.6,456.15l.85-.48c53.81-25.53,131.73-25.53,185.91,0l.76.38,20.14,11.63.57.38c47.28,33.48,44.16,82.84-9.64,114.14Z"/><path class="cls-1" d="M796.7,1771.56,1536,1344.7l-1.7-853.06.09-.19-56.64-32.72L1268.86,338.16l-56.74-32.72-208.7-120.57-56.83-32.72L737.79,31.58l-.38-.19-28-16.17L683.13,0,629.42,31l-2.93,1.71,26.28,15.22,28,16.17.28.19L889.94,184.87l56.65,32.72h.09l208.7,120.57L1212.12,371h.1L1421,491.54l28.65,16.55,28.09,16.17-681,393.2Zm294.1-903.28c.09,32.35,21.84,37.55,57.68,42.28,36,4.73,76.78,10.11,77,70.54S1185,1094,1149.14,1140.16s-57.4,76.4-57.3,108.75l-40.29,23.26c-.19-60.52,40.47-112.91,76.41-159.15,35.65-46,57.3-76.32,57.21-108.66s-21.84-37.54-57.68-42.26c-36-4.73-76.79-10-77-70.55Zm-58.92,264.31c35.75-45.95,57.4-76.22,57.31-108.56l40.28-23.26c.19,60.52-40.47,112.81-76.31,159.06-35.75,46.05-57.4,76.31-57.31,108.65s21.85,37.54,57.78,42.27c12.77,1.7,25.82,3.4,37.55,7.57l50.11-68.18c3.31-57.12,41.8-106.86,76.13-150.93,35.65-46,57.4-76.4,57.3-108.65L1315,967.3c.19,60.42-40.57,112.81-76.41,159-32.72,42.27-53.62,71.21-56.74,100.62l55,12.86c.18-2.08.28-4.07.28-6.06-.19-60.52,40.47-112.81,76.31-159,35.75-46,57.4-76.31,57.31-108.75-.09-32.24-21.85-37.54-57.78-42.27s-76.79-10-76.88-70.55l40.19-23.26c.09,32.35,21.94,37.55,57.68,42.37,36,4.63,76.89,10.12,77.07,70.54s-40.57,112.82-76.4,159.15c-35.65,46-57.31,76.22-57.22,108.56a148.71,148.71,0,0,1-5.1,37.55l70.36,16.54-23.17,51.26-69.23-16.27-33.57-7.94-35.36-8.32-1.61,149.5-40.28,22.51,1.7-148.94-140.43,190.74-22.7-25.25,77.83-105.82c-7.19-1.61-15.23-2.64-23.36-3.69-36-4.73-76.78-10.21-77-70.63S996,1178.93,1031.88,1132.59Z"/><path class="cls-1" d="M740,917.43v751.31a116.4,116.4,0,0,0-14.18-9.55c-53-30.64-136.27-33.1-193.76-7.38l-.95-.47V796.86Z"/><path class="cls-1" d="M474.33,764.14v751.22a126,126,0,0,0-14.09-9.46c-53.14-30.64-136.17-33.1-193.76-7.38l-.94-.56V643.57Z"/><path class="cls-1" d="M208.8,610.85v752.26a125.52,125.52,0,0,0-14.75-9.93c-52.77-30.45-135.33-33-192.82-7.85l-1-.57-.19-.09V490.28Z"/></g></g></svg>