<svg xmlns="http://www.w3.org/2000/svg" viewBox="0 0 1536 1771.77"><defs><style>.cls-1{fill:#fff;}</style></defs><g id="Layer_2" data-name="Layer 2"><g id="Layer_1-2" data-name="Layer 1"><path class="cls-1" d="M1515.19,430.33,1281.67,295.54,1272,290h-.09l-224-129.46L814,25.56,789.15,11.15,787,10,766.92,0,747.19,11,20.81,430.33,0,442.32V1329.2l20.81,12,726.38,419.34,19.4,11.24,20-10.07,1.16-.5,1.42-.84,726-419.17,20.81-12V442.32Zm-20.82,874.81-726,419.17-.33.17L41.63,1305.14V466.38L768,47l.25.08.08.08,24.89,14.41,25,14.4,183.91,106.14,25,14.41,25,14.4,183.73,106.23,25,14.4h.08l24.89,14.4,183.91,106.15,24.72,14.24Z"/><path class="cls-1" d="M276,630.24v662.27a110.13,110.13,0,0,0-13-8.75c-46.45-26.8-119.13-29-169.75-6.91l-.91-.5-.17-.08V524.09Z"/><path class="cls-1" d="M509.75,765.19v661.35a110.05,110.05,0,0,0-12.4-8.32c-46.79-27-119.88-29.14-170.59-6.5l-.83-.5V659Z"/><path class="cls-1" d="M743.61,900.14v661.44a101.44,101.44,0,0,0-12.49-8.41c-46.71-27-120-29.14-170.58-6.5l-.84-.41V794Z"/><path class="cls-1" d="M793.56,900.12v751.93l650.86-375.8V524.4ZM1041,874.23c.09,27.22,18.48,31.63,48.71,35.55s64.68,8.57,64.77,59.52-34,95.07-64.27,134c-30.06,38.79-48.37,64.27-48.29,91.57L1008,1214.48c-.17-51,34-95.16,64.26-134,30.06-38.79,48.37-64.35,48.29-91.57s-18.48-31.64-48.62-35.63c-30.3-4-64.77-8.5-64.85-59.45Zm212.3,333.92-19.48,43.13-58.37-13.66-28.22-6.66-29.88-7L1116,1349.85l-17,9.49-16.9,9.49,1.33-125.46L965.14,1404,946,1382.81l65.69-89.16c-6.16-1.33-12.82-2.25-19.73-3.16-30.31-4-64.69-8.58-64.86-59.45-.16-51,34.06-95.15,64.28-134.11,30.13-38.71,48.37-64.27,48.28-91.5l34-19.65c.16,51-34.14,95.08-64.27,134-30.14,38.8-48.37,64.27-48.29,91.58s18.4,31.63,48.62,35.63c10.74,1.42,21.81,2.83,31.64,6.41l42.29-57.53c2.75-48,35.22-90,64.1-127.12,30-38.8,48.37-64.36,48.29-91.58l33.88-19.56c.17,51-34.05,95.07-64.27,134-27.64,35.55-45.2,60-47.87,84.75l46.37,10.83a35.19,35.19,0,0,0,.25-5.08c-.16-51,34.05-95.07,64.27-134,30.14-38.79,48.37-64.27,48.29-91.57s-18.4-31.64-48.62-35.64-64.69-8.49-64.85-59.44l34-19.65c.09,27.31,18.4,31.64,48.62,35.72,30.31,3.91,64.69,8.49,64.86,59.36.16,51-34.14,95.15-64.36,134.12-30,38.71-48.29,64.26-48.2,91.49a122.8,122.8,0,0,1-4.33,31.64Z"/><path class="cls-1" d="M768.58,856.93h-.08L584.68,750.78l567.94-327.92c47.46-23.15,117.06-23.4,165.18-.75a.28.28,0,0,1,.16.08l17.49,10a12.28,12.28,0,0,1,1.25.83c41.62,29.47,38.87,73-8.41,100.49Z"/><path class="cls-1" d="M534.73,722,350.91,615.75,919,287.82c47.37-23.06,116.88-23.31,164.92-.67a18.32,18.32,0,0,1,2.17,1.09l14.56,8.4c.75.42,1.5.92,2.25,1.42,41.63,29.55,38.88,73-8.49,100.49Z"/><path class="cls-1" d="M860.08,264.09,301,586.94,117.14,480.8,681,155.2l.67-.33c50.7-26.31,128.87-25.31,177.91,3C910.36,187.17,910.61,234.79,860.08,264.09Z"/></g></g></svg>