<svg xmlns="http://www.w3.org/2000/svg" viewBox="0 0 1574.31 1432.28"><defs><style>.cls-1{fill:#b4a198;}</style></defs><g id="Layer_2" data-name="Layer 2"><g id="Layer_1-2" data-name="Layer 1"><path class="cls-1" d="M1531.17,395.47l-632.28-365a229,229,0,0,0-228.77.36L43,395.29A85.24,85.24,0,0,0,.82,459H.18L0,468.14V972H.64a84.77,84.77,0,0,0,42.5,64.8l632.19,365a229.42,229.42,0,0,0,228.86-.27l627.16-364.49a85.25,85.25,0,0,0,42.87-74.67V472.61a26,26,0,0,0,.09-2.65A85.4,85.4,0,0,0,1531.17,395.47ZM789.49,1386.68a182.35,182.35,0,0,1-91.31-24.41l-102.91-59.4v-70.29l80.06,46.16a229.45,229.45,0,0,0,228.86-.28l95.14-55.29,4.57-2.66V1167.6l-13.71,8-108.94,63.34a183,183,0,0,1-183.07.27l-102.91-59.41v-70.28l80.06,46.15a229.13,229.13,0,0,0,228.86-.36l95.14-55.21,4.57-2.65v-52.91l-13.71,7.94-108.94,63.34a183,183,0,0,1-183.07.28l-102.91-59.41V986.27l80.06,46.24a229.13,229.13,0,0,0,228.86-.36l95.14-55.21,4.57-2.65V921.37l-13.71,8L881.25,992.66a183,183,0,0,1-183.07.28L595.27,933.53V863.15l80.06,46.16c3.38,1.92,6.67,3.74,10,5.39,6.86,3.47,13.8,6.58,20.66,9.32a15.12,15.12,0,0,0,2.1.82c1.19.46,2.28.92,3.38,1.29,1.47.54,3.38,1.28,5.3,1.91,3,1,5.94,1.92,8.87,2.75a232.61,232.61,0,0,0,27,6.12c3.11.46,6.13.91,9.14,1.28s6.31.73,9.42.91c2.83.28,6,.46,9.14.55s6.12.18,9.14.18A227.82,227.82,0,0,0,904.19,909c134.17-78.14,542.17-315.87,624.33-364.12v417.5a39.65,39.65,0,0,1-20.11,35.1L881.25,1362A182.55,182.55,0,0,1,789.49,1386.68ZM1059.84,298.41c111.59,0,215.15,103.55,219.62,252.89-37,27.7-77,40.31-115.89,40.31-36.28,0-71.74-11-103.18-31-5-3.2-10.06-6.67-15-10.42C988,506.7,946.87,431.58,944.13,338.63,981.05,311,1021,298.41,1059.84,298.41ZM693.06,562.82a182.79,182.79,0,0,1,183-.27L1143.56,717.1,881.25,869.55c-3.75,2.19-7.22,4-10.69,5.67-3,1.55-6.13,3-9.69,4.48-2.56,1.09-4.76,1.91-7,2.83-2.1.73-4.29,1.55-6.4,2.28-2.46.82-4.84,1.56-7.31,2.2-3,.91-5.94,1.74-9.23,2.46-3,.73-6.13,1.38-9.69,1.93a178.74,178.74,0,0,1-19.1,2.37l-2.56.09-2.74.18c-2.29,0-4.85.1-7.31.1-3.11,0-6.22-.1-9.42-.19-2.92-.09-5.66-.36-8.32-.63s-4.93-.55-7.31-.92-4.93-.64-7.31-1.1c-5.12-.91-9.87-1.92-14.44-3.2l-1.19-.36h-.09c-3.84-1-7.22-2-10.23-3.11s-5.67-1.92-8.41-3c-2.38-.91-4.3-1.73-6.22-2.65-1.74-.72-3.29-1.37-4.75-2.1-1.64-.73-2.93-1.37-4.39-2.1l-.18-.18-.27-.09a35.82,35.82,0,0,1-4-2.1l-.18-.1-.27-.18c-1.37-.64-2.66-1.37-4-2.1l-2.37-188.64-.09-5.22-4.48-2.55-94.69-54.84ZM213.5,1082.41,66,997.23a39.65,39.65,0,0,1-20.2-34.91v-9.14H45.7V915.8l167.8,97Zm0-122.47L66,874.76a40,40,0,0,1-20.2-34.91v-9.14H45.7V793.23l167.8,97Zm0-122.56L66,752.29a40.06,40.06,0,0,1-20.2-35v-9.14H45.7V670.76l167.8,97Zm0-122.47L66,629.72a40,40,0,0,1-20.2-34.91v-9.14H45.7V548.2L138.93,602l74.57,43.14Zm168.17,464.57L259.2,1108.83V618.21l-4.57-2.56-94.5-54.11V418.05l221.54,128.6ZM549.57,784v492.44l-122.2-70.56V573.15L650.65,702.66l1.83,140.66L563.28,792Z"/><path class="cls-1" d="M1179.54,521c-13.44,30.34-57.3,34-97.88,8.22S1019,458,1032.39,427.63s57.4-34,98-8.22S1193.07,490.6,1179.54,521Z"/></g></g></svg>