<svg xmlns="http://www.w3.org/2000/svg" viewBox="0 0 1574.31 1432.45"><defs><style>.cls-1{fill:#b4a198;}</style></defs><g id="Layer_2" data-name="Layer 2"><g id="Layer_1-2" data-name="Layer 1"><path class="cls-1" d="M1531.08,395.5,898.85,30.44A229.44,229.44,0,0,0,670,30.71L42.77,395.22C17.82,409.94,2.19,435,.18,463.32H.09L0,466.24V962.56a82.75,82.75,0,0,0,.91,12.61,84.59,84.59,0,0,0,42.14,61.7l517.88,299,114.35,66.09a228.6,228.6,0,0,0,228.87-.37l109.13-63.43,518.07-301.08a85.24,85.24,0,0,0,42.87-74.67V474.28c0-1.55.09-3,.09-4.2A85.69,85.69,0,0,0,1531.08,395.5Zm-473.74-2.65c42.05-24.5,110.87-24.5,153.28,0,24,13.8,37.2,33.36,37.29,54.93a54.2,54.2,0,0,1-9.5,30.35c-6.21,9.32-15.45,17.54-27.33,24.49l-9.14,5.3L1146,475.66l27.24-15.91c8-4.57,10.69-9.23,10.6-11.88s-2.83-7.59-10.88-12.16c-20.74-12-57.12-12-77.87,0L1086,441l-55.85-32.27ZM724.18,200.63c42.23-24.5,111-24.5,153.19,0,24,13.8,37.2,33.36,37.29,54.93a54,54,0,0,1-9.41,30.34c-6.22,9.24-15.36,17.65-27.24,24.5l-9.23,5.3-55.94-32.26,27.24-15.91c7.86-4.57,10.6-9.14,10.6-11.88s-2.83-7.49-11-12.16c-20.74-12.06-57-12.06-77.6,0l-9.23,5.3-55.94-32.26ZM213.51,1082.57,65.9,997.29a39.8,39.8,0,0,1-20.2-34.83V915.85l167.81,96.89Zm0-122.57L65.9,874.72a39.59,39.59,0,0,1-20.2-34.83V793.37l167.81,96.89Zm0-122.48L65.9,752.24a39.8,39.8,0,0,1-20.2-34.83V670.8l167.81,96.89Zm0-122.57L65.81,629.76A39.94,39.94,0,0,1,45.7,594.85V548.32l167.81,96.89ZM381.6,1179.64l-122.38-70.75V618.79l-4.57-2.65L160,561.58V418.07L381.6,546.68ZM563.22,791.91l-13.71-7.86v492.57L427.31,1206V573.18l223.2,129.61,1.83,140.58-68.56-39.58Zm965.3,170.55a40,40,0,0,1-20.2,35.1L990.25,1298.65l-109.13,63.43a182.87,182.87,0,0,1-183,.27l-102.92-59.41v-70.38l80.07,46.16a228.28,228.28,0,0,0,228.87-.27L999.57,1223l4.57-2.65V1215l-.08-31.63-.1-15.81-13.71,8L881.12,1239a182.8,182.8,0,0,1-183,.27l-102.92-59.5v-70.29l80.07,46.16a228.24,228.24,0,0,0,228.87-.28l95.42-55.48,4.57-2.65V1092l-.08-31.62-.1-15.91-13.71,8-109.13,63.44a182.8,182.8,0,0,1-183,.27l-102.92-59.5V986.32l80.07,46.16a228.82,228.82,0,0,0,228.87-.28l95.42-55.48,4.57-2.65v-5.3l-.08-31.62-.1-15.82-13.71,8L881.12,992.63a182.8,182.8,0,0,1-183,.27L595.21,933.49V863.2l69.1,39.85,2.1,1.28h.1l8.68,5a229,229,0,0,0,229-.27l624.37-362.78Z"/></g></g></svg>