<svg xmlns="http://www.w3.org/2000/svg" viewBox="0 0 1594.33 1450.5"><defs><style>.cls-1{fill:#010101;}</style></defs><g id="Layer_2" data-name="Layer 2"><g id="Layer_1-2" data-name="Layer 1"><path class="cls-1" d="M1550.64,400.5,910.32,30.82a231.9,231.9,0,0,0-231.68.37L43.5,400.32A86.35,86.35,0,0,0,.83,464.83H.19L0,474.09V984.37H.65a85.82,85.82,0,0,0,43,65.62l640.23,369.68a232.33,232.33,0,0,0,231.77-.27l635.14-369.13a86.35,86.35,0,0,0,43.41-75.62v-496a26.56,26.56,0,0,0,.09-2.68A86.48,86.48,0,0,0,1550.64,400.5ZM799.53,1404.31a184.68,184.68,0,0,1-92.47-24.71l-104.22-60.16v-71.19L683.92,1295a232.36,232.36,0,0,0,231.77-.28l96.35-56,4.63-2.68v-53.6l-13.88,8.06-110.33,64.14a185.33,185.33,0,0,1-185.4.28l-104.22-60.16v-71.18l81.08,46.74a232.07,232.07,0,0,0,231.77-.37L1012,1114l4.63-2.68v-53.59l-13.88,8L892.46,1130a185.27,185.27,0,0,1-185.4.28l-104.22-60.16V998.81l81.08,46.83a232,232,0,0,0,231.77-.37l96.35-55.9,4.63-2.69V933.09l-13.88,8-110.33,64.15a185.33,185.33,0,0,1-185.4.28L602.84,945.4V874.13l81.08,46.74c3.42,2,6.76,3.8,10.09,5.46,6.94,3.52,14,6.67,20.92,9.45a17.47,17.47,0,0,0,2.12.83c1.21.46,2.32.92,3.43,1.29,1.48.56,3.43,1.3,5.37,2,3,1,6,1.94,9,2.78a237.89,237.89,0,0,0,27.41,6.2c3.14.46,6.2.92,9.25,1.29s6.39.74,9.53.93c2.87.28,6.11.46,9.26.55s6.2.19,9.26.19a230.68,230.68,0,0,0,116.16-31.2c135.87-79.13,549.06-319.88,632.27-368.75V974.65a40.17,40.17,0,0,1-20.36,35.54L892.46,1379.32A184.82,184.82,0,0,1,799.53,1404.31Zm273.79-1102.1c113,0,217.88,104.87,222.42,256.11-37.49,28-77.94,40.82-117.37,40.82-36.75,0-72.66-11.11-104.5-31.38-5.09-3.24-10.18-6.76-15.18-10.55-58.12-44.06-99.77-120.14-102.55-214.28C993.53,315,1034,302.21,1073.32,302.21ZM701.88,570a185.11,185.11,0,0,1,185.3-.27L1158.1,726.22,892.46,880.61c-3.8,2.22-7.32,4.07-10.83,5.74-3.06,1.57-6.2,3.06-9.81,4.53-2.59,1.11-4.82,2-7.13,2.87-2.13.74-4.35,1.58-6.48,2.32-2.5.83-4.91,1.57-7.41,2.22-3,.92-6,1.76-9.34,2.5-3.06.74-6.21,1.39-9.81,1.94a178.7,178.7,0,0,1-19.35,2.41l-2.59.09-2.78.18c-2.31,0-4.9.1-7.4.1-3.15,0-6.3-.1-9.54-.19-3-.09-5.74-.37-8.42-.64s-5-.56-7.41-.93-5-.65-7.4-1.11c-5.18-.93-10-1.94-14.63-3.24l-1.2-.37h-.09c-3.88-1-7.31-2-10.37-3.15s-5.74-1.94-8.51-3c-2.41-.93-4.35-1.76-6.3-2.69-1.75-.73-3.33-1.39-4.81-2.13-1.66-.74-3-1.38-4.44-2.13l-.19-.18-.27-.09a35.13,35.13,0,0,1-4.08-2.13l-.18-.09-.28-.19c-1.39-.65-2.69-1.39-4.07-2.13l-2.41-191-.09-5.28-4.53-2.59-95.9-55.53Zm-485.66,526.2L66.83,1009.91a40.12,40.12,0,0,1-20.46-35.35V965.3h-.09V927.45l169.94,98.2Zm0-124L66.83,885.88a40.53,40.53,0,0,1-20.46-35.35v-9.26h-.09V803.32l169.94,98.21Zm0-124.12L66.83,761.86a40.58,40.58,0,0,1-20.46-35.45v-9.26h-.09V679.29L216.22,777.5Zm0-124L66.83,637.73a40.53,40.53,0,0,1-20.46-35.35v-9.26h-.09v-38l94.41,54.52,75.53,43.69Zm170.31,470.48-124-71.55V626.07l-4.63-2.59-95.71-54.8V423.37L386.53,553.6Zm170-400.5v498.7l-123.75-71.45V580.44L658.93,711.59,660.78,854l-90.34-52Z"/><path class="cls-1" d="M1194.54,527.57c-13.6,30.73-58,34.43-99.13,8.33s-63.49-72.1-49.89-102.83,58.13-34.43,99.23-8.33S1208.24,496.84,1194.54,527.57Z"/></g></g></svg>