<svg xmlns="http://www.w3.org/2000/svg" viewBox="0 0 1574.31 1432.28"><defs><style>.cls-1{fill:#394251;}</style></defs><g id="Layer_2" data-name="Layer 2"><g id="Layer_1-2" data-name="Layer 1"><path class="cls-1" d="M734.55,316.07a255,255,0,0,0-127.49,34.64L584.21,364v26.32C584.39,531,699,645.56,839.75,645.56c44.24,0,88.38-12.07,127.59-34.73l22.76-13.16V571.26C989.92,430.5,875.31,316.07,734.55,316.07ZM892.49,592.92a201.65,201.65,0,0,1-52.74,6.94,191.25,191.25,0,0,1-26-1.73c20.3-2.75,36.47-13.17,44.33-31,17-38-10.69-95-61.6-127.22s-105.84-27.61-122.74,10.32c-12,27-1.65,63.43,23.67,93.78-40.77-37.2-67.36-90.85-67.45-153.73,33.81-19.56,69.73-28.52,104.64-28.52,109.31,0,209.67,87.38,209.85,209.57A213.07,213.07,0,0,1,892.49,592.92Z"/><path class="cls-1" d="M1531.17,395.47l-632.28-365a229,229,0,0,0-228.77.36L43,395.29A85.25,85.25,0,0,0,.83,459H.18L0,468.14V972H.64a84.79,84.79,0,0,0,42.5,64.8l632.19,365a229.45,229.45,0,0,0,228.86-.28l627.17-364.49a85.26,85.26,0,0,0,42.86-74.67V472.61a26,26,0,0,0,.09-2.65A85.4,85.4,0,0,0,1531.17,395.47ZM325.65,456c89.66-165.34,267-270.62,459.91-270.62,259.66,0,475.81,190.19,513.1,441.62l-155.1,90.12L953.27,827.69l-72,41.86c-3.75,2.2-7.22,4-10.69,5.67-3,1.55-6.13,3-9.69,4.48-2.56,1.09-4.76,1.91-7,2.83-2.1.73-4.29,1.55-6.4,2.28-2.46.83-4.84,1.56-7.31,2.2-3,.91-5.94,1.74-9.23,2.47-3,.73-6.12,1.37-9.69,1.92a178.74,178.74,0,0,1-19.1,2.37l-2.56.09-2.74.19c-2.29,0-4.84.09-7.31.09-3.11,0-6.22-.09-9.42-.19-2.92-.09-5.66-.36-8.31-.63s-4.94-.55-7.32-.92-4.93-.64-7.31-1.1c-5.11-.91-9.87-1.92-14.44-3.2l-1.19-.36h-.09c-3.84-1-7.22-2-10.23-3.11s-5.67-1.92-8.41-3c-2.38-.91-4.3-1.73-6.21-2.65-1.75-.72-3.3-1.37-4.76-2.09-1.64-.74-2.93-1.38-4.38-2.11l-.19-.18-.27-.09a35.05,35.05,0,0,1-4-2.1l-.18-.09-.27-.19c-.09-.09-.28-.09-.37-.18-1.28-.55-2.37-1.28-3.66-1.92l-1.91-149.07-.46-39.57-.09-5.22-4.48-2.55L323.36,460.37A47.24,47.24,0,0,1,325.65,456ZM213.51,1082.41,66,997.23a39.65,39.65,0,0,1-20.2-34.91v-9.14H45.7V915.8l167.81,97Zm0-122.47L66,874.76a40,40,0,0,1-20.2-34.91v-9.14H45.7V793.23l167.81,97Zm0-122.56L66,752.29a40.08,40.08,0,0,1-20.2-35v-9.14H45.7V670.76l167.81,97Zm0-122.47L66,629.73a40.07,40.07,0,0,1-20.2-34.92v-9.14H45.7V548.2L138.93,602l74.58,43.14Zm168.17,464.57L259.2,1108.83V618.21l-4.57-2.56-94.5-54.1V418.05l221.55,128.6ZM549.57,784v492.44l-122.2-70.56V573.15L650.66,702.66l1.82,140.66L563.28,792Zm979,178.4a39.65,39.65,0,0,1-20.11,35.1L881.25,1362a183,183,0,0,1-183.07.27l-102.91-59.4v-70.29l80.06,46.16a229.45,229.45,0,0,0,228.86-.28l95.15-55.29,4.57-2.66V1167.6l-13.71,8-109,63.34a183,183,0,0,1-183.07.27l-102.91-59.41v-70.28l80.06,46.16a229.16,229.16,0,0,0,228.86-.37l95.15-55.2,4.57-2.65v-52.92l-13.71,8-109,63.33a183,183,0,0,1-183.07.28l-102.91-59.41V986.27l80.06,46.24a229.13,229.13,0,0,0,228.86-.36l95.15-55.21,4.57-2.65V921.37l-13.71,8-109,63.33a183,183,0,0,1-183.07.28L595.27,933.53V863.16l80.06,46.15c3.39,1.92,6.67,3.75,10,5.39,6.86,3.47,13.81,6.58,20.66,9.32a17.33,17.33,0,0,0,2.1.83c1.19.45,2.29.91,3.39,1.28,1.46.54,3.37,1.28,5.29,1.91,3,1,5.95,1.92,8.87,2.75a231,231,0,0,0,27,6.12c2.75.37,5.4.82,8.05,1.1l.09.09c.37,0,.64.09,1,.09,3.11.37,6.31.73,9.42.91,2.83.28,6,.46,9.14.55s6.12.18,9.14.18A230.72,230.72,0,0,0,856.21,930a14.55,14.55,0,0,0,1.82-.63A222.93,222.93,0,0,0,904.19,909c134.17-78.14,542.17-315.86,624.33-364.12Z"/></g></g></svg>