<svg xmlns="http://www.w3.org/2000/svg" viewBox="0 0 1536 1536"><defs><style>.cls-1{fill:#394251;}</style></defs><g id="Layer_2" data-name="Layer 2"><g id="Layer_1-2" data-name="Layer 1"><path class="cls-1" d="M884.09,1241.69l-.41.41-.25-.25A1.56,1.56,0,0,0,884.09,1241.69Z"/><path class="cls-1" d="M843.81,1154.82a377.91,377.91,0,0,1-41.1,6.14l.08-.08A396.52,396.52,0,0,0,843.81,1154.82Z"/><path class="cls-1" d="M843,1120.69a2.56,2.56,0,0,0-.08.82v.08a4.26,4.26,0,0,1-1,.16Z"/><path class="cls-1" d="M865.26,1149.83c-1.72.49-3.52,1-5.32,1.39v-.08C861.74,1150.73,863.46,1150.32,865.26,1149.83Z"/><path class="cls-1" d="M876.06,1148.85l-1.55-1.56c-1.64.49-3.36,1-5,1.39l4.91-1.47a6.43,6.43,0,0,0,1.39-.33Z"/><path class="cls-1" d="M926.09,1128.3c-2.05.9-4.1,1.88-6.14,2.7,2-.9,4-1.8,6-2.7Z"/><polygon class="cls-1" points="1020.48 1273.04 1015.65 1263.63 1015.73 1263.63 1020.48 1273.04"/><path class="cls-1" d="M865.26,1149.83c-1.72.49-3.52,1-5.32,1.39v-.08C861.74,1150.73,863.46,1150.32,865.26,1149.83Z"/><path class="cls-1" d="M876.06,1148.85l-1.55-1.56c-1.64.49-3.36,1-5,1.39l4.91-1.47a6.43,6.43,0,0,0,1.39-.33Z"/><path class="cls-1" d="M926.09,1128.3c-2.05.9-4.1,1.88-6.14,2.7,2-.9,4-1.8,6-2.7Z"/><path class="cls-1" d="M875.82,1146.88a6.43,6.43,0,0,1-1.39.33l-4.91,1.47c1.63-.4,3.35-.9,5-1.39l1.55,1.56Zm-15.88,4.26v.08c1.8-.41,3.6-.9,5.32-1.39C863.46,1150.32,861.74,1150.73,859.94,1151.14Zm155.79,112.49h-.08l4.83,9.41Zm-132.3-21.78.25.25.41-.41A1.56,1.56,0,0,1,883.43,1241.85Z"/><path class="cls-1" d="M1096.7,1425.56A728.61,728.61,0,0,1,784.37,1503c-5.4.16-10.88.24-16.37.24v.25c5.49,0,11-.08,16.37-.25,7-.16,14-.4,21-.73h.41q7.74-.37,15.47-1c10.32-.73,20.55-1.63,30.71-2.86,5.07-.57,10.14-1.23,15.22-1.88q9.09-1.23,17.93-2.71c2-.24,3.85-.57,5.73-.9,4.83-.82,9.66-1.72,14.49-2.61l3.77-.74c7.69-1.56,15.31-3.11,23-4.83s15.15-3.61,22.68-5.57c5-1.31,10-2.7,15-4.09,11.87-3.44,23.74-7.13,35.37-11.14,6.3-2.13,12.61-4.34,18.83-6.71s12.44-4.75,18.58-7.21c5.81-2.37,11.63-4.74,17.36-7.28l2.21-1c5.65-2.46,11.22-5,16.7-7.54.16-.08.24-.16.33-.16q9-4.17,17.68-8.6c6.63-3.27,13.18-6.71,19.65-10.23,7-3.76,13.92-7.69,20.79-11.62,5.73-3.36,11.38-6.72,17-10.24a4.49,4.49,0,0,0,1.06-.65c6.06-3.77,12-7.53,17.85-11.46,11.79-7.78,23.34-16,34.55-24.32a14.24,14.24,0,0,1,1.39-1.06c5.9-4.42,11.63-8.93,17.36-13.51s11.38-9.09,16.95-14A740.62,740.62,0,0,1,1096.7,1425.56Zm165.45-113.47c2.13-1.8,4.26-3.76,6.31-5.73,2-1.8,3.93-3.6,5.81-5.57C1270.26,1304.64,1266.25,1308.33,1262.15,1312.09Zm39.22-38.39c1.72-1.72,3.36-3.44,5-5.24,1.88-2,3.69-4,5.49-6.06C1308.33,1266.25,1304.89,1269.93,1301.37,1273.7Zm11.71-12.61c3.6-3.93,7.2-7.94,10.72-11.95,0-.08,0-.08.08-.17,3.6-4.09,7.13-8.27,10.48-12.52C1327.4,1244.8,1320.28,1253,1313.08,1261.09Zm33.15-39.38c-3.36,4.26-6.79,8.52-10.23,12.77,1.06-1.23,2.12-2.54,3.11-3.76,1.15-1.4,2.29-2.79,3.36-4.18,4.09-5,8.1-10.15,12-15.31,2.62-3.52,5.32-7.12,7.94-10.72,1.88-2.54,3.77-5.16,5.65-7.78a31.39,31.39,0,0,0,2-3Q1358.55,1206,1346.23,1221.71Zm26-35.2c1.8-2.54,3.51-5,5.23-7.53l.17-.17c1.39-2.13,2.86-4.25,4.17-6.38C1378.65,1177.17,1375.46,1181.84,1372.27,1186.51Zm31.43-49.37c-3.85,6.47-7.69,13-11.71,19.4-2.29,3.77-4.66,7.45-7.12,11.22-1,1.55-2,3.11-3,4.67,1.07-1.56,2.13-3.12,3.11-4.67,1.15-1.8,2.3-3.52,3.44-5.32.74-1.23,1.56-2.38,2.3-3.6,1-1.56,2-3.2,2.94-4.75.49-.82,1.07-1.64,1.56-2.46,1.23-2.13,2.54-4.26,3.85-6.47,2.29-3.76,4.58-7.61,6.71-11.46C1405.09,1134.85,1404.44,1136,1403.7,1137.14Zm10.73-19c2.21-3.85,4.26-7.78,6.3-11.79,1.23-2.21,2.38-4.42,3.44-6.71.82-1.48,1.55-3,2.29-4.51a1.11,1.11,0,0,0,.25-.65C1422.78,1102.43,1418.69,1110.37,1414.43,1118.15Zm18.17-35.7q-2.82,6-5.89,12c1.31-2.38,2.45-4.75,3.6-7.12.24-.41.41-.9.66-1.4.57-1.14,1.14-2.29,1.71-3.52s1.31-2.78,1.89-4.17Zm7.78-17.11c-1.23,2.87-2.54,5.82-3.85,8.68.58-1.23,1.15-2.46,1.72-3.68,1.39-3,2.7-6.14,4.1-9.25.81-1.64,1.47-3.36,2.2-5,.66-1.47,1.23-2.86,1.72-4.25Q1443.45,1058.59,1440.38,1065.34Zm15.88-38.56c-.73,2-1.55,4.18-2.37,6.23,1-2.38,1.88-4.75,2.78-7.13a2.84,2.84,0,0,1,.33-.9c.49-1.47,1.06-3,1.55-4.42C1457.82,1022.61,1457,1024.74,1456.26,1026.78Zm17.52-52.55c.57-1.73,1.07-3.44,1.56-5.16.65-2.38,1.31-4.75,2-7.12C1476.16,966,1475,970.13,1473.78,974.23Zm10.64-40.37c.33-1.31.58-2.53.91-3.84.73-3.36,1.47-6.72,2.2-10.16.25-1.31.49-2.53.74-3.84C1487.05,922,1485.73,927.89,1484.42,933.86Z"/><path class="cls-1" d="M1535.92,758.09c0-1.72,0-3.52-.08-5.48v-.49C1527.32,335.9,1186.18,0,768,0,344.58,0,0,344.5,0,768c0,418,335.74,759.08,751.63,767.84,5.48.08,10.89.16,16.37.16a763.35,763.35,0,0,0,343.35-81.13,773.54,773.54,0,0,0,192.56-137.21c5.64-5.57,11.21-11.14,16.7-16.78a15.22,15.22,0,0,0,1.55-1.56,5.74,5.74,0,0,0,.74-.74l.74-.73c4.42-4.67,8.76-9.34,13.18-14.16v-.09l7.86-8.84c2.61-3,5.24-6,7.77-9,1.56-1.8,3.12-3.68,4.67-5.48,2.45-2.78,4.83-5.65,7-8.51,1.15-1.4,2.21-2.79,3.36-4.18a24.83,24.83,0,0,0,2.29-2.87c9.09-11.46,17.85-23.08,26.28-35v-.09c5.57-7.94,11.05-16,16.37-24.15,2.46-3.76,4.83-7.53,7.29-11.38.24-.49.57-1,.9-1.55,2.46-3.93,4.91-7.94,7.29-12,2.13-3.44,4.17-6.88,6.14-10.4,2.53-4.34,5-8.76,7.36-13.18.41-.66.74-1.23,1.07-1.89,2.21-4.09,4.5-8.26,6.63-12.44s4.34-8.35,6.39-12.53,4.25-8.43,6.22-12.68,4-8.52,6-12.86c2.62-5.73,5.16-11.54,7.62-17.35s4.83-11.63,7.2-17.52c0-.09,0-.09.08-.17,2.29-5.81,4.51-11.62,6.63-17.52s4.26-11.95,6.31-17.93c1.55-4.42,3-8.92,4.42-13.34s2.86-9,4.17-13.51,2.71-9.09,3.93-13.67,2.46-9.09,3.69-13.67v-.17c3.19-12.28,6.06-24.64,8.59-37.16A766.86,766.86,0,0,0,1536,768.24v-5C1536,761.53,1536,759.81,1535.92,758.09ZM32.75,768C32.75,362.59,362.59,32.75,768,32.75c358.91,0,658.62,258.53,722.56,599.1a203.69,203.69,0,0,0-159.06-75.64c-110.94,0-200.66,86.86-204.26,197.79v1.07c.08,4.33.24,8.76.24,13.17,0,.91,0,1.81-.08,3.28,0,4-.16,8-.33,12-.08,2.45-.24,5-.41,7.44-.16,2.62-.32,5.16-.57,7.7v.16c-.57,6.8-1.31,13.51-2.29,20.14-.41,3.36-1,6.72-1.56,10-1.8,10.73-4.09,21.2-6.88,31.52-.73,2.87-1.47,5.73-2.37,8.51-2,6.88-4.17,13.59-6.55,20.23-1,2.7-2,5.4-3,8.1a335.46,335.46,0,0,1-16.94,37.41c-1.15,2.3-2.38,4.51-3.61,6.72-1.31,2.45-2.62,4.83-4,7.2l-31.93-31.93-54.6,54.61a163.15,163.15,0,0,0-140.08,106.75c-23.9-8.59-47.56-19.48-71.63-30.53-82.44-37.91-167.59-77-273.93-30.62-81.54-82.61-175.2-77.86-265.74-73.27-68.69,3.44-133.69,6.79-193-26.77A738.51,738.51,0,0,1,32.75,768Zm912.58,250.35L890,1073.69A129.9,129.9,0,0,1,945.33,1018.35ZM57.64,957.93c60.08,24.73,123.37,21.53,184.93,18.42,89.24-4.42,173.48-8.76,246.1,69.18l-71,368.82C242.57,1319,110.28,1154.58,57.64,957.93Zm710.28,172-16.29.08v82L628.5,1335.18l81,81,42.08-42.08V1503A729.68,729.68,0,0,1,448,1429.9l73.93-383.79c92-39.06,166.43-4.92,245,31.19,25.29,11.62,50.84,23.41,77.2,32.74-.5,3.52-.9,7-1.15,10.65a2.56,2.56,0,0,0-.08.82v.08a4.26,4.26,0,0,1-1,.16c-6,1.31-12,2.46-18.1,3.44-3,.49-6.05,1-9.17,1.39s-6,.82-9.16,1.15-6.23.65-9.34.9C786.83,1129.45,777.41,1129.86,767.92,1129.94Zm735.33-361.7q0,9.35-.24,18.67c-.25,10.56-.74,21-1.48,31.36a2.89,2.89,0,0,1-.08.82c-.24,3.93-.57,7.86-.9,11.78-.33,4.1-.65,8.11-1.06,12.12a1.06,1.06,0,0,0-.08.49c-.66,6.06-1.32,12-2.05,18-.82,6.14-1.64,12.28-2.62,18.34-.58,3.93-1.23,7.78-1.88,11.63s-1.31,7.77-2,11.62c-.16.74-.25,1.39-.41,2.13-.49,2.78-1,5.57-1.64,8.35-.16.82-.32,1.64-.49,2.46-.25,1.31-.49,2.53-.74,3.84-.73,3.44-1.47,6.8-2.2,10.16-.33,1.31-.58,2.53-.91,3.84-.32,1.48-.65,2.87-1,4.34-.74,3-1.47,6-2.21,9-.41,1.47-.74,2.86-1.14,4.34-.66,2.37-1.23,4.74-1.89,7.12-.32,1.06-.57,2.21-.9,3.28-.65,2.37-1.31,4.74-2,7.12-.49,1.72-1,3.43-1.56,5.16a6.33,6.33,0,0,1-.33,1.22c-.73,2.46-1.47,4.92-2.12,7.37-.33.9-.58,1.88-.91,2.78,0,.17-.08.25-.08.41s-.08.25-.16.41c-1.72,5.65-3.52,11.3-5.49,17a1.39,1.39,0,0,0-.16.41c-1.89,5.65-3.85,11.22-6,16.78-.49,1.47-1.06,3-1.55,4.42a2.84,2.84,0,0,0-.33.9c-.9,2.38-1.8,4.75-2.78,7.13-.41,1-.74,1.88-1.15,2.86-.16.49-.41,1-.57,1.47-1.81,4.84-3.85,9.75-5.9,14.5-.49,1.39-1.06,2.78-1.72,4.25-.73,1.64-1.39,3.36-2.2,5-1.4,3.11-2.71,6.22-4.1,9.25-.57,1.22-1.14,2.45-1.72,3.68-.65,1.39-1.31,2.87-2,4.26s-1.23,2.86-1.89,4.17-1.14,2.38-1.71,3.52c-.25.5-.42,1-.66,1.4-1.15,2.37-2.29,4.74-3.6,7.12a1.11,1.11,0,0,1-.25.65c-.74,1.48-1.39,3-2.29,4.51-1.06,2.29-2.21,4.5-3.44,6.71-2,4-4.09,7.94-6.3,11.79-.58,1.06-1.23,2.21-1.81,3.27-.89,1.72-1.88,3.36-2.78,5-1.31,2.45-2.7,4.83-4.09,7.28-2.13,3.85-4.42,7.7-6.71,11.46-1.31,2.21-2.62,4.34-3.85,6.47-.49.82-1.07,1.64-1.56,2.46-1,1.55-2,3.19-2.94,4.75-.74,1.22-1.56,2.37-2.3,3.6-1.14,1.8-2.29,3.52-3.44,5.32-1,1.55-2,3.11-3.11,4.67-1.31,2.13-2.78,4.25-4.17,6.38l-.17.17c-1.72,2.53-3.43,5-5.23,7.53-.82,1.06-1.56,2.21-2.3,3.27a31.39,31.39,0,0,1-2,3c-1.88,2.62-3.77,5.24-5.65,7.78-2.62,3.6-5.32,7.2-7.94,10.72-3.85,5.16-7.86,10.32-12,15.31-1.07,1.39-2.21,2.78-3.36,4.18-1,1.22-2,2.53-3.11,3.76-.25.33-.57.66-.82,1s-.57.66-.82,1c-3.35,4.25-6.88,8.43-10.48,12.52-.08.09-.08.09-.08.17-3.52,4-7.12,8-10.72,11.95-.33.33-.66.74-1,1.06l-.24.25c-1.8,2-3.61,4.09-5.49,6.06-1.63,1.8-3.27,3.52-5,5.24-.33.32-.66.73-1,1.06a3.36,3.36,0,0,1-.57.65c-.82.82-1.64,1.64-2.37,2.46-3.36,3.28-6.55,6.55-9.74,9.82-1.64,1.64-3.36,3.28-5,5-2,1.8-3.85,3.68-5.81,5.65-.49.57-1,1-1.47,1.47a4.11,4.11,0,0,1-.66.57,2,2,0,0,1-.49.41c-1.88,2-3.85,3.77-5.81,5.57-2,2-4.18,3.93-6.31,5.73-1.22,1.07-2.45,2.21-3.68,3.36-1.89,1.64-3.77,3.27-5.65,5-3.11,2.87-6.3,5.65-9.49,8.19-5.57,4.91-11.22,9.5-16.95,14-5.73,4.67-11.46,9.17-17.36,13.51a14.24,14.24,0,0,0-1.39,1.06c-11.21,8.35-22.76,16.54-34.55,24.32-5.89,3.93-11.79,7.69-17.85,11.46a4.49,4.49,0,0,1-1.06.65c-5.57,3.52-11.22,7-17,10.24-6.87,3.93-13.83,7.86-20.79,11.62-6.47,3.52-13,7-19.65,10.23q-8.71,4.54-17.68,8.6c-.09,0-.17.08-.33.16-5.48,2.62-11,5.16-16.7,7.54l-2.21,1c-5.73,2.54-11.55,5-17.36,7.28-6.14,2.54-12.36,5-18.58,7.21-6.22,2.37-12.53,4.58-18.83,6.71-11.63,4-23.5,7.7-35.37,11.14-5,1.39-10,2.78-15,4.09-7.53,2-15.14,3.77-22.68,5.57s-15.31,3.35-23,4.83l-3.77.74c-4.83,1-9.66,1.88-14.49,2.61-1.88.33-3.76.66-5.73.9q-9,1.61-17.93,2.71c-5.08.65-10.15,1.31-15.22,1.88-10.16,1.23-20.39,2.13-30.71,2.86q-7.73.62-15.47,1h-.41c-7,.41-13.92.65-21,.73-5.4.17-10.88.25-16.37.25v-.25c5.49,0,11-.08,16.37-.24v-60.42h.41a666.42,666.42,0,0,0,284.9-71.06v-.08l-7.37-14.58v-.08l-7.36-14.57c-84.41,42.49-175.44,65.17-270.58,67.62V1349.1c3.36,0,6.72-.17,9.75-.33a577.88,577.88,0,0,0,186.25-39.71c9.33-3.76,19-7.86,28.65-12.36,1-.41,2.05-.9,3-1.39q8-3.69,15.72-7.62l-4.18-8.43-3.11-6.22-4.83-9.41-2.62-5.16c-3.68,1.88-7.45,3.68-11.38,5.48-1.15.58-2.21,1.15-3.36,1.64-8.59,4-17.19,7.78-25.46,11.14-1.47.65-3,1.3-4.5,1.88-6.8,2.7-13.67,5.24-20.55,7.61a546.77,546.77,0,0,1-136.88,28.66c-6.14.49-12.28.9-18.42,1.14-2.46.17-5,.33-8.11.33v-60.66H785a487.94,487.94,0,0,0,91-12c2.46-.57,5-1.14,7.45-1.8a1.56,1.56,0,0,0,.66-.16c3.19-.74,6.46-1.56,9.57-2.46,2.63-.66,5.25-1.39,7.78-2.21,3.2-.82,6.47-1.8,9.67-2.87.57-.16,1.22-.32,1.88-.57,2.12-.65,4.34-1.39,6.47-2.13a465.58,465.58,0,0,0,66.39-27.59l-7.29-14.57-7.36-14.57q-17.81,9-36.52,16.37c-3.93,1.64-7.86,3.11-11.87,4.5-6.63,2.54-13.34,4.75-20.06,6.88l-1.06.33c-1.8.57-3.68,1.14-5.48,1.72-3.69,1.06-7.29,2.13-11.14,3.11-1.8.49-3.6,1-5.48,1.39-3.61,1-7.29,1.88-11,2.7-1.81.41-3.69.82-5.57,1.23a450.15,450.15,0,0,1-78.68,10v-60.75c6.14-.32,12.28-.73,18.42-1.31a396.52,396.52,0,0,0,41-6.06c2.37-.49,4.83-1,7.2-1.55,3-.66,6-1.31,8.93-2v-.08c1.8-.41,3.52-.82,5.32-1.31,1.47-.41,2.86-.74,4.26-1.15l4.91-1.47a6.43,6.43,0,0,0,1.39-.33c3.85-1.14,7.7-2.37,11.54-3.6,4.83-1.55,9.66-3.27,14.41-5,4-1.56,7.94-3.11,12-4.75,2-.82,4.18-1.72,6.23-2.54s4-1.8,6-2.7h.17c2.37-1.06,4.66-2.13,7-3.19,3.68-1.72,7.28-3.44,10.8-5.32.49-.25.9-.5,1.39-.74,3.85-2,7.62-4,11.38-6.14q6.27-3.44,12.28-7.12a7.75,7.75,0,0,0,1.07-.66c3.84-2.29,7.61-4.75,11.38-7.2,4-2.62,7.94-5.32,11.87-8.11h.08c4.26-3.11,8.52-6.22,12.61-9.41,2.45-1.8,4.83-3.77,7.2-5.65,3.52-3,7-5.9,10.48-8.84,3-2.54,6-5.24,8.93-7.94.49-.5,1.06-1,1.55-1.48,2.86-2.62,5.65-5.32,8.43-8.1q2-1.85,3.93-3.93c1.31-1.23,2.62-2.62,3.93-4,.41-.4.74-.81,1.15-1.22,3-3.11,5.89-6.31,8.76-9.5s5.64-6.47,8.35-9.74q1.85-2.09,3.43-4.18c2.14-2.62,4.18-5.24,6.23-7.86.24-.32.49-.57.73-.9,3.36-4.34,6.56-8.76,9.75-13.26,2.78-4,5.56-8.1,8.27-12.2,1.14-1.8,2.29-3.6,3.35-5.4.82-1.23,1.56-2.46,2.3-3.69a58.18,58.18,0,0,0,3.35-5.73c.82-1.22,1.56-2.53,2.29-3.84a3.74,3.74,0,0,0,.42-.74l.24-.49c.9-1.64,1.88-3.27,2.78-5s1.88-3.35,2.79-5.07c2.7-4.91,5.23-10,7.61-15.06,1.47-3.11,2.95-6.31,4.34-9.42a1.31,1.31,0,0,0,.24-.65c1.81-3.85,3.44-7.7,5-11.63.08-.16.08-.24.16-.33,1.56-3.93,3-7.86,4.51-11.87,1.31-3.6,2.61-7.2,3.84-10.89.49-1.39.9-2.78,1.39-4.17,2.38-7.37,4.51-14.9,6.39-22.43,1.06-3.93,2-7.86,2.87-11.79.24-1,.4-2,.65-2.95.82-3.68,1.56-7.37,2.21-11.13.82-4.34,1.56-8.68,2.13-13.1.57-3.77,1.06-7.53,1.55-11.38.5-4.34,1-8.76,1.32-13.18.16-2,.32-3.85.49-5.81s.24-4.1.32-6.14c.16-2.46.25-4.92.33-7.37.16-3.36.25-6.63.25-10,.08-1.39.08-2.7.08-4.1q0-6.87-.25-13.75a171.69,171.69,0,0,1,343.11-1.23v.41c0,1.64.08,3.2.08,4.83s.08,3.44.08,5.16Z"/><path class="cls-1" d="M876.06,1148.85l-1.63-1.64a6.43,6.43,0,0,0,1.39-.33Z"/><path class="cls-1" d="M926.09,1128.3c-2.05.9-4.1,1.88-6.14,2.7,2-.9,4-1.8,6-2.7Z"/><path class="cls-1" d="M841.93,1121.75a4.26,4.26,0,0,0,1-.16v-.08A2.24,2.24,0,0,1,841.93,1121.75Zm384.45,220.88c5.73-4.5,11.38-9.09,16.95-14Q1235,1335.76,1226.38,1342.63Zm110.44-59v.09a.08.08,0,0,0,.08-.09c2.62-2.94,5.32-5.89,7.78-8.84Zm15.63-17.85c-2.53,3-5.16,6.06-7.77,9q2.21-2.33,4.17-4.67c.66-.73,1.31-1.47,1.88-2.21q2.22-2.45,4.18-4.91l2.21-2.7C1355.57,1262.07,1354,1264,1352.45,1265.75Zm-6.22-44c-1.23,1.64-2.45,3.19-3.76,4.83,4.09-5,8.1-10.15,12-15.31C1351.72,1214.75,1349,1218.27,1346.23,1221.71Zm23.58,23q5.78-7.11,11.3-14.48c.65-.91,1.39-1.81,2.13-2.79,4.33-5.81,8.59-11.79,12.85-17.76C1387.66,1221.63,1378.9,1233.25,1369.81,1244.71Zm26.28-35.12c2.78-3.92,5.57-7.94,8.35-11.95s5.4-8.1,8-12.2C1407.14,1193.63,1401.66,1201.65,1396.09,1209.59Zm60.17-182.81c-.73,2-1.55,4.18-2.37,6.23,1-2.38,1.88-4.75,2.78-7.13C1456.5,1026.21,1456.42,1026.54,1456.26,1026.78Zm17.52-52.55c.57-1.73,1.07-3.44,1.56-5.16.65-2.38,1.31-4.75,2-7.12C1476.16,966,1475,970.13,1473.78,974.23ZM1109,961.7h.08a3.42,3.42,0,0,1,.41-.74c.82-1.39,1.56-2.86,2.29-4.26C1110.86,958.43,1109.88,960.06,1109,961.7ZM821.21,1501.53c10.32-.73,20.55-1.63,30.71-2.86C841.76,1499.82,831.53,1500.8,821.21,1501.53ZM768,1503.25v.25c5.49,0,11-.08,16.37-.25V1503C779,1503.17,773.49,1503.25,768,1503.25Zm91.94-352.11v.08c1.8-.41,3.6-.9,5.32-1.39C863.46,1150.32,861.74,1150.73,859.94,1151.14Z"/><path class="cls-1" d="M1320.61,1300.88c-1.31,1.39-2.62,2.86-4,4.25s-2.78,2.87-4.17,4.26a29.94,29.94,0,0,1-2.78,2.7c-1,1-1.89,2-2.87,2.87a18.84,18.84,0,0,1-1.88,1.8,11.31,11.31,0,0,1-1,.9C1309.55,1312.09,1315.12,1306.52,1320.61,1300.88Z"/><path class="cls-1" d="M1344.68,1274.76c-2.46,3-5.16,5.9-7.78,8.84h-.08Z"/><path class="cls-1" d="M1352.45,1265.75c-.57.74-1.14,1.48-1.72,2.13s-1.22,1.48-1.88,2.21q-2,2.34-4.17,4.67C1347.29,1271.81,1349.92,1268.78,1352.45,1265.75Z"/><path class="cls-1" d="M1357.12,1260.27l-2.21,2.7a25.63,25.63,0,0,1-2.46,2.78C1354,1264,1355.57,1262.07,1357.12,1260.27Z"/><path class="cls-1" d="M1385,1167.76c-1,1.55-2,3.11-3.11,4.67,1-1.56,2.05-3.12,3-4.67Z"/><path class="cls-1" d="M1396.09,1209.68c-4.26,6-8.52,12-12.85,17.76-.74,1-1.48,1.88-2.13,2.79q-5.53,7.37-11.3,14.48C1378.9,1233.25,1387.66,1221.63,1396.09,1209.68Z"/><path class="cls-1" d="M1393.63,1154.09c-1,1.55-2,3.19-2.94,4.75.49-.74.9-1.56,1.3-2.3C1392.57,1155.73,1393.14,1154.91,1393.63,1154.09Z"/><path class="cls-1" d="M1412.46,1185.44c-2.62,4.1-5.32,8.11-8,12.2s-5.57,8-8.35,11.95C1401.66,1201.65,1407.14,1193.63,1412.46,1185.44Z"/><path class="cls-1" d="M1432.68,1082.45c-.57,1.23-1.14,2.38-1.71,3.52.57-1.14,1.14-2.29,1.63-3.52Z"/><path class="cls-1" d="M1027.93,1287.61c-.08,0-.08.08-.16.08l-4.18-8.43-3.11-6.22Z"/><polygon class="cls-1" points="985.93 1203.86 985.85 1203.86 978.56 1189.29 985.93 1203.86"/><path class="cls-1" d="M843.81,1154.82a377.91,377.91,0,0,1-41.1,6.14c-6.06.58-12.2,1-18.34,1.23,6.14-.32,12.28-.73,18.42-1.31A396.52,396.52,0,0,0,843.81,1154.82Z"/><path class="cls-1" d="M875.82,1146.88c-.41.17-.9.25-1.31.41-1.64.49-3.36,1-5,1.39l4.91-1.47A6.43,6.43,0,0,0,875.82,1146.88Z"/><path class="cls-1" d="M926.09,1128.3c-2.05.9-4.1,1.88-6.14,2.7,2-.9,4-1.8,6-2.7Z"/><path class="cls-1" d="M1111.76,956.7c-.73,1.4-1.47,2.87-2.29,4.26a3.42,3.42,0,0,0-.41.74c-.08.16-.24.33-.32.49l.24-.49C1109.88,960.06,1110.86,958.43,1111.76,956.7Z"/><path class="cls-1" d="M1477.3,962c-.65,2.37-1.31,4.74-2,7.12-.49,1.72-1,3.43-1.56,5.16C1475,970.13,1476.16,966,1477.3,962Z"/><path class="cls-1" d="M1111.76,956.7c-.73,1.4-1.47,2.87-2.29,4.26a3.42,3.42,0,0,0-.41.74H1109C1109.88,960.06,1110.86,958.43,1111.76,956.7Z"/><path class="cls-1" d="M841.93,1121.75a4.26,4.26,0,0,0,1-.16v-.08A2.24,2.24,0,0,1,841.93,1121.75Zm384.45,220.88c5.73-4.5,11.38-9.09,16.95-14Q1235,1335.76,1226.38,1342.63Zm110.44-59v.09a.08.08,0,0,0,.08-.09c2.62-2.94,5.32-5.89,7.78-8.84Zm15.63-17.85c-2.53,3-5.16,6.06-7.77,9q2.21-2.33,4.17-4.67c.66-.73,1.31-1.47,1.88-2.21q2.22-2.45,4.18-4.91l2.21-2.7C1355.57,1262.07,1354,1264,1352.45,1265.75Zm-6.22-44c-1.23,1.64-2.45,3.19-3.76,4.83,4.09-5,8.1-10.15,12-15.31C1351.72,1214.75,1349,1218.27,1346.23,1221.71Zm23.58,23q5.78-7.11,11.3-14.48c.65-.91,1.39-1.81,2.13-2.79,4.33-5.81,8.59-11.79,12.85-17.76C1387.66,1221.63,1378.9,1233.25,1369.81,1244.71Zm26.28-35.12c2.78-3.92,5.57-7.94,8.35-11.95s5.4-8.1,8-12.2C1407.14,1193.63,1401.66,1201.65,1396.09,1209.59Zm60.17-182.81c-.73,2-1.55,4.18-2.37,6.23,1-2.38,1.88-4.75,2.78-7.13C1456.5,1026.21,1456.42,1026.54,1456.26,1026.78Zm17.52-52.55c.57-1.73,1.07-3.44,1.56-5.16.65-2.38,1.31-4.75,2-7.12C1476.16,966,1475,970.13,1473.78,974.23ZM1109,961.7h.08a3.42,3.42,0,0,1,.41-.74c.82-1.39,1.56-2.86,2.29-4.26C1110.86,958.43,1109.88,960.06,1109,961.7ZM821.21,1501.53c10.32-.73,20.55-1.63,30.71-2.86C841.76,1499.82,831.53,1500.8,821.21,1501.53ZM768,1503.25v.25c5.49,0,11-.08,16.37-.25V1503C779,1503.17,773.49,1503.25,768,1503.25Zm91.94-352.11v.08c1.8-.41,3.6-.9,5.32-1.39C863.46,1150.32,861.74,1150.73,859.94,1151.14Z"/><path class="cls-1" d="M1109.06,961.7c-.08.16-.24.33-.32.49l.24-.49Z"/><polygon class="cls-1" points="985.93 1203.86 985.85 1203.86 978.56 1189.29 985.93 1203.86"/><path class="cls-1" d="M1027.93,1287.61c-.08,0-.08.08-.16.08l-4.18-8.43-3.11-6.22Z"/><path class="cls-1" d="M329.25,841.43a80.64,80.64,0,0,1-80.55-80.55h35.79a44.76,44.76,0,0,0,89.51,0h35.8A80.64,80.64,0,0,1,329.25,841.43Z"/><path class="cls-1" d="M773.85,841.43a80.64,80.64,0,0,1-80.55-80.55h35.8a44.75,44.75,0,0,0,89.5,0h35.8A80.64,80.64,0,0,1,773.85,841.43Z"/></g></g></svg>