<svg xmlns="http://www.w3.org/2000/svg" viewBox="0 0 1594.33 1450.5"><defs><style>.cls-1{fill:#000;
stroke: #000;
stroke-width: 4px;}</style></defs><g id="Layer_2" data-name="Layer 2"><g id="Layer_1-2" data-name="Layer 1"><path class="cls-1" d="M743.89,320.09a258.24,258.24,0,0,0-129.11,35.08l-23.14,13.42v26.66c.18,142.54,116.25,258.52,258.79,258.52,44.8,0,89.51-12.22,129.22-35.17l23-13.33V578.52C1002.51,436,886.44,320.09,743.89,320.09Zm160,280.37a204.22,204.22,0,0,1-53.41,7,192.9,192.9,0,0,1-26.38-1.76C844.6,603,861,592.4,868.94,574.35c17.22-38.5-10.82-96.16-62.38-128.84S699.38,417.56,682.25,456c-12.12,27.31-1.66,64.24,24,95-41.28-37.67-68.21-92-68.3-155.69,34.24-19.81,70.62-28.88,106-28.88,110.71,0,212.34,88.49,212.52,212.24A215.14,215.14,0,0,1,903.84,600.46Z"/><path class="cls-1" d="M1550.65,400.5,910.32,30.82a231.89,231.89,0,0,0-231.67.37L43.5,400.32A86.33,86.33,0,0,0,.84,464.83H.19L0,474.09V984.37H.65a85.85,85.85,0,0,0,43,65.63l640.23,369.68a232.36,232.36,0,0,0,231.77-.28l635.14-369.13a86.35,86.35,0,0,0,43.41-75.62v-496a26.56,26.56,0,0,0,.09-2.68A86.49,86.49,0,0,0,1550.65,400.5ZM329.79,461.78c90.8-167.44,270.37-274.07,465.76-274.07,263,0,481.86,192.62,519.63,447.25L1158.1,726.22l-192.7,112-72.94,42.39c-3.8,2.22-7.32,4.07-10.83,5.74-3.06,1.57-6.2,3.06-9.81,4.53-2.59,1.11-4.82,2-7.13,2.87-2.13.74-4.35,1.58-6.48,2.32-2.5.83-4.9,1.57-7.41,2.22-3,.93-6,1.76-9.34,2.5-3.06.74-6.2,1.39-9.81,1.94a178.7,178.7,0,0,1-19.35,2.41l-2.59.09-2.78.19c-2.31,0-4.9.09-7.4.09-3.15,0-6.3-.09-9.54-.19-3-.09-5.74-.37-8.42-.64s-5-.56-7.4-.93-5-.65-7.41-1.11c-5.18-.93-10-1.94-14.62-3.24l-1.21-.37h-.09c-3.88-1-7.31-2-10.37-3.15s-5.74-1.94-8.51-3c-2.4-.93-4.35-1.76-6.29-2.69-1.76-.73-3.34-1.39-4.82-2.12-1.66-.74-3-1.39-4.44-2.14l-.19-.18-.27-.09a35.13,35.13,0,0,1-4.08-2.13l-.18-.09-.28-.19c-.09-.09-.28-.09-.37-.18-1.29-.56-2.41-1.3-3.7-1.94l-2-151L704.93,690l-.09-5.28-4.53-2.59L327.47,466.22C328.12,464.74,329,463.26,329.79,461.78Zm-113.57,634.4L66.83,1009.92a40.14,40.14,0,0,1-20.46-35.36V965.3h-.09V927.45l169.94,98.2Zm0-124L66.83,885.88a40.55,40.55,0,0,1-20.46-35.35v-9.26h-.09V803.32l169.94,98.21Zm0-124.12L66.83,761.86a40.6,40.6,0,0,1-20.46-35.45v-9.26h-.09V679.29L216.22,777.5Zm0-124L66.83,637.74a40.58,40.58,0,0,1-20.46-35.36v-9.26h-.09v-38l94.41,54.52,75.53,43.69Zm170.31,470.48-124-71.55V626.07l-4.63-2.59-95.71-54.79V423.37L386.53,553.6Zm170-400.5v498.7l-123.75-71.45V580.44L658.93,711.6,660.78,854l-90.34-52ZM1548,974.65a40.15,40.15,0,0,1-20.36,35.54L892.46,1379.32a185.33,185.33,0,0,1-185.4.28l-104.22-60.16v-71.18L683.92,1295a232.36,232.36,0,0,0,231.77-.28l96.36-56,4.62-2.68v-53.6l-13.88,8.06-110.33,64.14a185.33,185.33,0,0,1-185.4.28l-104.22-60.16v-71.18l81.08,46.74a232.07,232.07,0,0,0,231.77-.37l96.36-55.9,4.62-2.69v-53.59l-13.88,8L892.46,1130a185.27,185.27,0,0,1-185.4.28l-104.22-60.16V998.81l81.08,46.83a232,232,0,0,0,231.77-.37l96.36-55.9,4.62-2.69V933.09l-13.88,8-110.33,64.15a185.33,185.33,0,0,1-185.4.28L602.84,945.4V874.13l81.08,46.74c3.43,2,6.76,3.8,10.09,5.46,6.94,3.52,14,6.67,20.92,9.45a16.94,16.94,0,0,0,2.13.83c1.2.46,2.31.92,3.42,1.29,1.48.56,3.43,1.3,5.37,2,3,1,6,1.94,9,2.78a235.17,235.17,0,0,0,27.4,6.2c2.78.37,5.46.83,8.14,1.11l.1.09c.37,0,.64.09,1,.09,3.15.38,6.39.74,9.53.93,2.88.28,6.11.46,9.26.55s6.21.19,9.26.19a233.79,233.79,0,0,0,67.57-10,14.09,14.09,0,0,0,1.85-.65,225.31,225.31,0,0,0,46.74-20.55c135.88-79.13,549.06-319.88,632.27-368.75Z"/></g></g></svg>