<svg xmlns="http://www.w3.org/2000/svg" viewBox="0 0 1594.33 1450.5"><defs><style>.cls-1{fill:#010101;}</style></defs><g id="Layer_2" data-name="Layer 2"><g id="Layer_1-2" data-name="Layer 1"><path class="cls-1" d="M1550.65,400.5,910.32,30.82a231.89,231.89,0,0,0-231.67.37L43.5,400.32A86.33,86.33,0,0,0,.84,464.83H.19L0,474.09V984.37H.65a85.8,85.8,0,0,0,43,65.62l640.23,369.69a232.36,232.36,0,0,0,231.77-.28l635.14-369.13a86.35,86.35,0,0,0,43.41-75.62v-496a26.56,26.56,0,0,0,.09-2.68A86.47,86.47,0,0,0,1550.65,400.5ZM970.21,427.81c29.34,11.11,56.28,30.17,78.49,55.63a216.43,216.43,0,0,1,26,36.28,250.26,250.26,0,0,1,25.82,62.39,280,280,0,0,1,9.54,65.53,197.32,197.32,0,0,1-44.62,25.08,167,167,0,0,1-61.27,11.76c-33.23,0-65.63-10-94.41-28.42a158.15,158.15,0,0,1-13.7-9.44c-31.38-23.69-57.39-57.85-73.87-99.59-11.1-28.14-17.77-59.71-18.78-93.86C857.1,413,917.36,407.54,970.21,427.81ZM701.88,570a168.91,168.91,0,0,1,28-13.24c34,125.51,148.74,217.89,285.08,217.89a297,297,0,0,0,77.47-10.27l-200,116.25c-3.8,2.22-7.31,4.07-10.83,5.74-3.06,1.57-6.2,3.06-9.81,4.53-2.59,1.11-4.82,2-7.13,2.87-2.13.74-4.35,1.58-6.48,2.32-2.5.83-4.9,1.57-7.41,2.22-3,.92-6,1.76-9.34,2.5-3.06.74-6.2,1.39-9.81,1.94a178.7,178.7,0,0,1-19.35,2.41l-2.59.09-2.78.19c-2.31,0-4.9.09-7.4.09-3.15,0-6.3-.09-9.54-.19-3-.09-5.73-.37-8.42-.64s-5-.56-7.4-.93-5-.65-7.41-1.11c-5.18-.92-10-1.94-14.62-3.24l-1.2-.37h-.1c-3.88-1-7.31-2-10.37-3.15s-5.73-1.94-8.51-3c-2.4-.93-4.35-1.76-6.29-2.68-1.76-.74-3.34-1.4-4.81-2.14-1.67-.73-3-1.38-4.45-2.13l-.18-.18-.28-.09a35.13,35.13,0,0,1-4.08-2.13l-.18-.09-.28-.19c-1.39-.65-2.68-1.39-4.07-2.13l-2.41-191-.09-5.28-4.53-2.59-95.9-55.53Zm-485.66,526.2L66.83,1009.92a40.14,40.14,0,0,1-20.46-35.36V965.3h-.09V927.45l169.94,98.2Zm0-124L66.83,885.88a40.55,40.55,0,0,1-20.46-35.35v-9.26h-.09V803.32l169.94,98.21Zm0-124.12L66.83,761.86a40.6,40.6,0,0,1-20.46-35.45v-9.26h-.09V679.29L216.22,777.5Zm0-124L66.83,637.73a40.54,40.54,0,0,1-20.46-35.35v-9.26h-.09v-38l94.41,54.52,75.53,43.69Zm170.31,470.48-124-71.55V626.07l-4.63-2.59-95.71-54.8V423.37L386.53,553.6Zm170-400.5v498.7l-123.75-71.45V580.44L658.93,711.6,660.78,854l-90.33-52ZM1548,974.65a40.15,40.15,0,0,1-20.36,35.54L892.46,1379.32a185.33,185.33,0,0,1-185.4.28l-104.22-60.16v-71.18L683.92,1295a232.36,232.36,0,0,0,231.77-.28l96.36-56,4.62-2.68v-53.6l-13.88,8.06-110.33,64.14a185.33,185.33,0,0,1-185.4.28l-104.22-60.16v-71.18l81.08,46.74a232.07,232.07,0,0,0,231.77-.37l96.36-55.9,4.62-2.69v-53.59l-13.88,8L892.46,1130a185.27,185.27,0,0,1-185.4.28l-104.22-60.16V998.81l81.08,46.83a232,232,0,0,0,231.77-.37l96.36-55.9,4.62-2.69V933.09l-13.88,8-110.33,64.15a185.33,185.33,0,0,1-185.4.28L602.84,945.4V874.13l81.08,46.74c3.43,2,6.76,3.8,10.09,5.46,7,3.52,14,6.67,20.92,9.45a15.52,15.52,0,0,0,2.13.83c1.2.46,2.31.92,3.42,1.29,1.48.56,3.43,1.3,5.37,2,3,1,6,1.94,9,2.78a235.17,235.17,0,0,0,27.4,6.2c3.15.46,6.2.92,9.25,1.29s6.39.74,9.54.93c2.87.28,6.1.46,9.25.55s6.21.19,9.26.19a230.68,230.68,0,0,0,116.16-31.2c135.88-79.13,549.06-319.88,632.27-368.75Z"/><path class="cls-1" d="M1020.65,629.13a41.26,41.26,0,0,1-8.7,12.68c-19.53,19.62-57.94,18.79-94-4.08-31.84-20.17-52.85-51.92-55.44-79.87a53.12,53.12,0,0,1,3.8-26.57c14.16-31.75,60.16-35.63,102.74-8.61S1034.72,597.38,1020.65,629.13Z"/></g></g></svg>