<svg xmlns="http://www.w3.org/2000/svg" viewBox="0 0 1536 1771.77"><defs><style>.cls-1{fill:#a8a29e;}</style></defs><g id="Layer_2" data-name="Layer 2"><g id="Layer_1-2" data-name="Layer 1"><path class="cls-1" d="M1515.19,430.33,1281.67,295.54,1272,290h-.08l-224-129.46L814,25.56l-24.89-14.4L787,10,766.92,0,747.19,11,20.81,430.33,0,442.32V1329.2l20.81,12,726.38,419.34,19.4,11.24,20-10.07,1.16-.5,1.42-.83,726-419.18,20.81-12V442.32Zm-20.82,874.81-726,419.18-.33.16L41.63,1305.14V466.38L768,47l.25.08.08.08,24.9,14.41,25,14.4,183.91,106.14,25,14.41,25,14.4,183.73,106.23,25,14.4h.08L1285.74,346l183.91,106.14,24.72,14.24Z"/><path class="cls-1" d="M276,630.23V1292.5a110.78,110.78,0,0,0-13-8.74c-46.46-26.81-119.14-29.06-169.76-6.91l-.91-.5-.17-.08V524.08Z"/><path class="cls-1" d="M509.77,765.18v661.36a110.09,110.09,0,0,0-12.4-8.33c-46.79-27-119.88-29.14-170.58-6.49l-.84-.5V659Z"/><path class="cls-1" d="M743.63,900.13v661.44a102.58,102.58,0,0,0-12.49-8.41c-46.7-27-120-29.14-170.58-6.49l-.84-.42V794Z"/><path class="cls-1" d="M1108.83,1153.13a6.3,6.3,0,0,1-1.33.91,12.49,12.49,0,0,1-1.16.58Z"/><polygon class="cls-1" points="1284.08 822.03 1284 822.03 1283.91 788.15 1284.08 822.03"/><path class="cls-1" d="M768.6,856.93h-.08L584.7,750.78l568-327.93c47.45-23.14,117-23.39,165.17-.75a.28.28,0,0,1,.16.08l17.49,10a10.94,10.94,0,0,1,1.25.84c41.62,29.47,38.87,73-8.41,100.48Z"/><path class="cls-1" d="M534.75,722,350.93,615.75,919,287.82c47.37-23.07,116.89-23.32,164.92-.67a18.28,18.28,0,0,1,2.17,1.08l14.57,8.41c.75.42,1.5.92,2.24,1.42,41.63,29.55,38.88,73-8.49,100.48Z"/><path class="cls-1" d="M860.1,264.09,301,586.94,117.16,480.79,681,155.19l.67-.33c50.7-26.31,128.87-25.31,177.91,3C910.38,187.16,910.63,234.78,860.1,264.09Z"/><path class="cls-1" d="M1108.83,1153.13a6.3,6.3,0,0,1-1.33.91,12.49,12.49,0,0,1-1.16.58Z"/><polygon class="cls-1" points="1284.08 822.03 1284 822.03 1283.91 788.15 1284.08 822.03"/><path class="cls-1" d="M793.56,900.12v751.93l650.86-375.79V524.41Zm204.8,14.16c12.4-7.17,22.56-1.42,22.56,12.9v.17c0,14.06-9.74,31-21.81,38.37l-1.17.67c-12.24,6.74-22.06,1-22.14-13.15C975.8,938.92,985.87,921.52,998.36,914.28Zm-78.59,379c0,14.24-10.07,31.55-22.48,38.71s-22.64,1.42-22.64-12.9V1319c0-14.07,9.74-31,21.81-38.37l1.17-.67c12.23-6.75,22.14-1,22.14,13.23Zm-.5-116.8-.17-47.12-41,23.73-.17-41.05L919,1088.35l-.17-47.11,35.8-20.74.09,47.21,41-23.73.17,41-41.05,23.73.08,47.12Zm143,205-35.81,20.65-.16-47.13-41,23.65-.09-41,41.05-23.65-.17-47.2,35.8-20.65.16,47.21,41-23.73.08,41-41,23.73Zm47.61-229-1,.59a6.3,6.3,0,0,1-1.33.91,12.49,12.49,0,0,1-1.16.58c-11.82,6.08-21.23.59-21.48-12.9l-.08-1.92c.58-14.06,10.48-30.71,22.56-37.63,12.23-7.15,22.23-1.58,22.56,12.33l.08,1.91C1129.4,1129.57,1120.74,1144.88,1109.83,1152.54Zm161-40-.16-47.12-41,23.65-.08-41,41-23.64-.16-47.12,35.79-20.73.17,47.2,41-23.73.09,41.05-41,23.72.16,47.12Zm82.84,74.93c0,14.32-10.07,31.55-22.48,38.71s-22.56,1.5-22.64-12.82,10.07-31.8,22.56-39,22.56-1.42,22.56,12.9Zm-6.16-402.11.08,39-29.55,17.07-.09-39L1284.08,822H1284l-.09-33.88,34-19.56-.16-39,29.55-17.06.16,39L1381.32,732l.08,33.89Z"/></g></g></svg>