<svg xmlns="http://www.w3.org/2000/svg" viewBox="0 0 1536 1536"><defs><style>.cls-1 {fill:#B4A198}</style></defs><g id="Layer_2" data-name="Layer 2"><g id="Layer_1-2" data-name="Layer 1"><path class="cls-1" d="M827.47,1187.43c-7.1-1.24-14.28-2.8-21.54-4.46Q816.7,1185.46,827.47,1187.43Z"/><path class="cls-1" d="M898.29,1191.31c-4.54.58-9.08.83-13.54,1C889.21,1192.05,893.75,1191.81,898.29,1191.31Z"/><path class="cls-1" d="M954.25,1175.55a134.27,134.27,0,0,1-14,5.94C944.93,1179.75,949.55,1177.77,954.25,1175.55Z"/><path class="cls-1" d="M661.4,39.62c10.4-1.49,20.88-2.81,31.45-3.88C682.28,36.81,671.8,38.05,661.4,39.62ZM605.85,17.17q26.37-5.7,53.4-9.49Q632.39,11.39,605.85,17.17ZM99.38,459.92a685,685,0,0,0-31.61,80.8c1-2.72,1.89-5.44,2.8-8.17,1.07-3.13,2.23-6.27,3.3-9.49,2.89-8.33,5.95-16.59,9.17-24.68.32-.82.65-1.65,1-2.48,4.88-12.13,10-24.1,15.52-35.9C99.46,460,99.46,460,99.38,459.92ZM113.9,430.2h.25c1.41-2.72,2.81-5.45,4.21-8.09a.25.25,0,0,1,.08-.16A740,740,0,0,1,526.94,72.64c3-1.08,6.11-2.32,9.24-3.31C356.08,128,204.12,255.46,113.9,430.2ZM508.37,45.07c10.56-3.8,21.29-7.35,32-10.73C529.66,37.64,518.93,41.19,508.37,45.07ZM445.06,71c-2.31,1.08-4.54,2.15-6.85,3.31,2.47-1.24,5-2.4,7.51-3.55C445.47,70.82,445.31,70.9,445.06,71ZM291.45,165.66q20.81-16.35,42.59-31.45C319.52,144,305.32,154.6,291.45,165.66ZM88.81,409.24q16.72-31.46,36-61.08A681.24,681.24,0,0,0,88.81,409.24Z"/><path class="cls-1" d="M645.06,1150.37c-6.11-.17-12.22-.17-18.33.16C632.84,1150.2,639,1150.12,645.06,1150.37Z"/><path class="cls-1" d="M665.78,1151.69c-6.86-.66-13.79-1.16-20.72-1.32C652,1150.45,658.92,1151,665.78,1151.69Z"/><path class="cls-1" d="M989.66,1153.84v.08c-.57.41-1.07.82-1.65,1.16A8.19,8.19,0,0,0,989.66,1153.84Z"/><path class="cls-1" d="M370.69,110.6c3.63-2.14,7.35-4.29,11.06-6.43,1.81-1.08,3.71-2.23,5.61-3.31C381.75,104,376.22,107.22,370.69,110.6Z"/><path class="cls-1" d="M1311.08,224.92C1166.05,79.9,973.15,0,768,0c-6.36,0-12.79.08-19.15.25-4.29.08-8.67.25-13,.41-2.88.08-5.77.25-8.75.41-15.27.83-30.54,2.07-45.72,3.8C674,5.69,666.6,6.6,659.25,7.68q-27,3.83-53.4,9.49c-5.53,1.15-11.06,2.47-16.51,3.8s-11,2.64-16.42,4.12S562,28,556.57,29.55s-10.81,3.14-16.18,4.79c-10.73,3.38-21.46,6.93-32,10.73-4.05,1.48-8,2.89-12,4.45-2.4.83-4.71,1.74-7,2.65-3,1.15-5.94,2.31-8.83,3.55-3.14,1.15-6.19,2.47-9.25,3.79-2.72,1.08-5.44,2.23-8.16,3.47-5.86,2.47-11.64,5-17.42,7.76-2.56,1.15-5,2.31-7.51,3.55-7.18,3.38-14.37,6.93-21.46,10.64-1.16.58-2.23,1.16-3.39,1.74-8.74,4.54-17.41,9.24-26,14.19-1.9,1.08-3.8,2.23-5.61,3.31-3.71,2.14-7.43,4.29-11.06,6.43-4.79,3-9.66,6-14.44,9-7.52,4.79-14.86,9.66-22.21,14.61q-21.78,15.1-42.59,31.45c-6.93,5.45-13.7,11.06-20.39,16.75-3.38,2.81-6.68,5.7-10,8.67-8.34,7.27-16.51,14.78-24.44,22.37-3.46,3.3-6.93,6.77-10.39,10.23q-8.17,7.94-15.86,16.27c-3.71,3.79-7.17,7.59-10.64,11.39-4.38,4.78-8.58,9.57-12.8,14.44-1.32,1.49-2.64,3-4,4.54-3.13,3.71-6.27,7.43-9.32,11.23-2.23,2.64-4.46,5.44-6.52,8.17-4.55,5.61-8.92,11.31-13.3,17-3.63,4.79-7.17,9.74-10.73,14.61q-5,6.93-9.65,13.87c-2.65,3.88-5.29,7.84-7.85,11.72a10.6,10.6,0,0,1-.82,1.24q-19.3,29.58-36,61.08c-3,5.78-6.1,11.64-9,17.58-.66,1.15-1.24,2.39-1.82,3.55-1.82,3.63-3.55,7.26-5.28,10.89s-3.39,7.35-5.12,11.06c-1,2.23-2,4.54-3,6.85-2.23,5-4.38,10.16-6.53,15.27q-3.09,7.44-5.94,14.86c-2,5-3.88,10-5.69,15S42.75,514.39,41,519.43c-3.38,10.07-6.6,20.22-9.66,30.37-.74,2.23-1.4,4.46-2,6.77-1.23,4.29-2.47,8.5-3.55,12.8-.57,2.14-1.15,4.21-1.65,6.35-1.07,3.88-2,7.76-2.88,11.64-.91,3.72-1.82,7.51-2.65,11.23q-6.06,26.73-10.07,53.9a21.23,21.23,0,0,0-.33,2.22c-.58,4.13-1.15,8.34-1.73,12.47-.33,2.55-.66,5.11-1,7.76C5,680,4.37,685,3.88,690.12c-.17,1.08-.25,2.15-.33,3.22-.41,4.54-.83,9.08-1.16,13.62s-.74,9-.91,13.54c-.16,1.57-.24,3.13-.33,4.7q-.49,9-.74,18.08C.17,751.45,0,759.79,0,768c0,205.11,79.9,398,224.92,543S562.85,1536,768,1536s398-79.9,543-224.92S1536,973.15,1536,768,1456.1,370,1311.08,224.92ZM31.94,768c0-7,.08-14,.33-21,.09-5.62.33-11.31.66-16.84.25-5.86.58-11.64,1.08-17.42a8.28,8.28,0,0,1,.16-2c.33-5.69.83-11.31,1.49-16.92a5.78,5.78,0,0,1,.16-1.65c.58-5.7,1.24-11.31,1.9-17,1.24-9.91,2.72-19.81,4.37-29.64a10.55,10.55,0,0,1,.25-1.56c.83-4.87,1.65-9.75,2.64-14.61.83-4.63,1.74-9.17,2.73-13.79.9-4.29,1.81-8.5,2.81-12.79s2-8.5,3-12.71,2.06-8.26,3.14-12.38a1.21,1.21,0,0,1,.16-.58c1.15-4.46,2.39-8.92,3.79-13.37s2.65-9.17,4.13-13.71q1.48-4.7,3-9.41a685,685,0,0,1,31.61-80.8c.08.08.08.08.16.08,31.94,6.6,63.23,5.12,94,0,12.05-2,24.18-4.54,36.15-7.43,5-1.24,10.07-2.47,15.11-3.8,7.67-1.9,15.26-4,22.86-5.94,39.12-10.4,77.09-20.55,115.06-20.47,3.71,0,7.51.08,11.23.33a24.63,24.63,0,0,1,2.56.17c1.48.08,3,.16,4.45.33,1.24.16,2.48.24,3.72.41,4.29.49,8.66,1.15,13,2,2.23.41,4.46.82,6.76,1.4,1.74.42,3.56.83,5.37,1.32.83.25,1.65.42,2.4.66,1.73.5,3.38,1,5,1.57,3,.91,6,1.9,9,3.06l6.19,2.47,6.68,3c.25.17.5.25.74.42,2.07.9,4.13,1.9,6.2,3.05a6.37,6.37,0,0,1,1,.58c2.14,1.16,4.37,2.31,6.52,3.63,2.31,1.24,4.7,2.72,7.1,4.29s4.7,3.06,7.09,4.79c2.4,1.57,4.71,3.3,7.1,5.2v721c-81.8-50.84-159.8-30.12-235.49-10.07-32.1,8.59-62.56,16.68-93.27,19.48A731.89,731.89,0,0,1,31.94,768Zm1007.74,10.15a112.23,112.23,0,0,0,59.43-147.33c-27.48-64.8,2.89-139.83,67.69-167.39a127.6,127.6,0,0,1,167.39,67.68c38.38,90.38,39.2,190.26,2.39,281.3s-106.81,162.36-197.19,200.74a364,364,0,0,1-143.13,29.22H932.71v-35.25h63.06V975.22H932.71V930.73h63.06V898.79H932.71V854.21h63.06V822.35H932.71V787.11h63.14A113.05,113.05,0,0,0,1039.68,778.19Zm-18.16-27.32V724.13a67.5,67.5,0,0,1,17.75-2.31,68.55,68.55,0,0,1,19.65,2.81,79.37,79.37,0,0,1-31.78,24.18A50.92,50.92,0,0,1,1021.52,750.87Zm-31.86,4.3H900.85v319.18h88.81v79.57c-.57.41-1.07.82-1.65,1.16-2.39,1.81-4.87,3.63-7.26,5.28-.08,0-.08.08-.17.08-1.81,1.24-3.46,2.39-5.28,3.47-.17.08-.25.25-.41.25-2.23,1.4-4.37,2.72-6.52,4-1.74,1.07-3.38,2-5.12,2.88-3,1.66-6,3.23-9,4.55a134.27,134.27,0,0,1-14,5.94,59.73,59.73,0,0,1-6.19,2.14c-3,1.08-5.86,1.9-8.75,2.65-.82.24-1.56.49-2.39.66a21.07,21.07,0,0,1-2.4.57,43.15,43.15,0,0,1-4.78,1.08q-2.61.62-5.2,1a36.89,36.89,0,0,1-5.29.82,63.22,63.22,0,0,1-6.93.91c-4.54.58-9.08.83-13.54,1-.16,0-.24.08-.41,0-6.93.25-13.87.08-20.8-.33-.17.08-.25.08-.33,0-2.56-.08-5.12-.33-7.59-.58s-4.71-.41-7-.74c-4.62-.5-9.24-1.15-14-2q-3.58-.5-7.18-1.24c-7.1-1.24-14.28-2.8-21.54-4.46-4.79-1.07-9.58-2.22-14.45-3.46-9.66-2.4-19.39-5-29.13-7.6-2.56-.66-5.12-1.32-7.6-2-7.59-2.06-15.27-4-22.94-5.94-5.12-1.24-10.24-2.48-15.44-3.63s-10.24-2.31-15.43-3.3q-6.08-1.24-12.14-2.23c-3-.5-6.11-1-9.24-1.41-4.62-.66-9.17-1.23-13.78-1.73-6.86-.66-13.79-1.16-20.72-1.32-6.11-.17-12.22-.17-18.33.16-2.23.09-4.37.25-6.6.42s-4.62.41-7,.66c-2.8.33-5.61.66-8.42,1.15a174.24,174.24,0,0,0-18,3.64c-2.31.49-4.54,1.15-6.85,1.81l-.74.25c-2.81.74-5.62,1.65-8.34,2.64q-4.46,1.49-8.92,3.22c-2.8,1.16-5.69,2.31-8.58,3.63s-5.78,2.64-8.67,4.13-5.78,3-8.67,4.62c-2.47,1.4-4.94,2.81-7.42,4.38-.58.33-1.08.66-1.65,1V461c2.39-1.9,4.7-3.63,7.1-5.2,2.22-1.65,4.37-3.06,6.6-4.46a6.57,6.57,0,0,0,.82-.49c2.23-1.49,4.54-2.81,6.77-4.13,1.74-1,3.47-2,5.12-2.89,3.3-1.81,6.52-3.38,9.74-4.95,2.06-1,4.21-2,6.27-2.81s3.88-1.57,5.78-2.31c4.62-1.73,9.25-3.3,13.78-4.62,1.33-.33,2.56-.66,3.8-1,1.57-.41,3.14-.83,4.71-1.16,2.22-.58,4.54-1,6.77-1.4,4.37-.83,8.66-1.49,13-2,1.23-.17,2.47-.25,3.71-.41,1.49-.17,3-.25,4.46-.33a24.27,24.27,0,0,1,2.56-.17c3.71-.25,7.51-.33,11.22-.33,38-.08,75.94,10.07,115.07,20.47,40.61,10.73,81.79,21.71,124,21.71,2.81,0,5.61-.08,8.42-.17,1.9,0,3.8-.16,5.78-.24,1.65-.09,3.38-.25,5-.42,5-.41,10.07-1,15.11-1.81,2.64-.42,5.28-.83,7.92-1.4,2.81-.58,5.7-1.16,8.5-1.9s5.7-1.41,8.59-2.31,5.69-1.74,8.5-2.73,5.53-1.9,8.34-3A191.09,191.09,0,0,0,973.15,442q3.72-1.86,7.43-4c2.15-1.15,4.3-2.39,6.36-3.71.91-.5,1.82-1.07,2.72-1.65ZM768,1504.06c-235.32,0-445.14-110.94-580-283.28,27.07-4,53.65-11.14,79.65-18,79.4-21.13,154.52-41,233.17,22.7l10.08,8.09,10-8.09c78.75-63.72,153.78-43.83,233.27-22.7,83.69,22.21,170.19,45.24,261.48-28.72l5.86-4.79v-95.74a399.74,399.74,0,0,0,344.7-249.11c39.94-98.89,39-207.51-2.65-305.73a159.24,159.24,0,0,0-209.24-84.53c-81.13,34.42-119,128.11-84.52,209.16a79.48,79.48,0,0,1,3.55,52.42,101.74,101.74,0,0,0-34.09-5.87,97.49,97.49,0,0,0-17.75,1.57V368.3l-26,21C916.86,453.07,841.83,433.09,762.35,412c-80.57-21.38-163.85-43.5-251.42,21-87.66-64.47-170.86-42.35-251.51-21-4.37,1.16-8.83,2.31-13.12,3.47a9,9,0,0,1-1.57.41c-2.39.66-4.87,1.32-7.34,1.9-4.87,1.24-9.74,2.47-14.61,3.63-2.56.66-5.2,1.24-7.76,1.82-8.92,2.06-17.83,3.88-26.66,5.36-24.93,4.21-49.53,5.61-74.21,1.65h-.25C204.12,255.46,356.08,128,536.18,69.33c2.89-1.07,5.78-2,8.67-2.88,4.54-1.49,9.08-2.89,13.7-4.21,4.87-1.49,9.74-2.89,14.69-4.21,4.3-1.24,8.67-2.4,13-3.47,4.37-1.24,8.83-2.31,13.28-3.22,4.46-1.07,8.92-2.06,13.46-3.05,2.31-.58,4.62-1.08,7-1.49,2.72-.58,5.53-1.15,8.33-1.57,5.53-1.15,11.06-2.14,16.59-3,4.87-.83,9.83-1.57,14.7-2.31a6,6,0,0,1,1.73-.25c10.4-1.57,20.88-2.81,31.45-3.88,6.19-.66,12.38-1.24,18.65-1.65,5.61-.5,11.23-.83,16.92-1.07a21.31,21.31,0,0,1,2.4-.09c5.53-.33,11.14-.57,16.67-.66.83-.08,1.57-.08,2.31-.08,6.11-.17,12.13-.25,18.24-.25,405.85,0,736.1,330.17,736.1,736.1S1173.89,1504.06,768,1504.06Z"/><path class="cls-1" d="M416.12,317a71.88,71.88,0,0,1-71.8-71.8h31.91a39.89,39.89,0,1,0,79.78,0h31.91A71.88,71.88,0,0,1,416.12,317Z"/><path class="cls-1" d="M769.83,317a71.88,71.88,0,0,1-71.8-71.8h31.91a39.89,39.89,0,1,0,79.78,0h31.91A71.88,71.88,0,0,1,769.83,317Z"/></g></g></svg>