<svg xmlns="http://www.w3.org/2000/svg" viewBox="0 0 1594.33 1450.67"><defs><style>.cls-1{fill:#010101;}</style></defs><g id="Layer_2" data-name="Layer 2"><g id="Layer_1-2" data-name="Layer 1"><path class="cls-1" d="M199.3,473.1h-.09v-2.59A24.91,24.91,0,0,0,199.3,473.1Z"/><path class="cls-1" d="M200.05,980.82h-.84V969.44A75.92,75.92,0,0,0,200.05,980.82Z"/><path class="cls-1" d="M1550.55,400.53,910.28,30.82a232.38,232.38,0,0,0-231.78.28L43.32,400.25c-25.27,14.9-41.1,40.26-43.13,69H.09l-.09,3V974.8a83.48,83.48,0,0,0,.93,12.77,85.63,85.63,0,0,0,42.67,62.48l524.47,302.78,115.8,66.93a231.51,231.51,0,0,0,231.78-.37l110.52-64.24,524.66-304.91a86.34,86.34,0,0,0,43.41-75.62V480.32c0-1.58.09-3.06.09-4.26A86.77,86.77,0,0,0,1550.55,400.53Zm-479.76-2.69c42.58-24.81,112.28-24.81,155.23,0,24.25,14,37.67,33.79,37.77,55.63a54.85,54.85,0,0,1-9.63,30.74c-6.29,9.44-15.64,17.77-27.68,24.8l-9.25,5.37-56.65-32.67,27.58-16.11c8-4.63,10.83-9.35,10.74-12s-2.87-7.69-11-12.31c-21-12.13-57.85-12.13-78.86,0l-9.26,5.37L1043.2,414ZM733.39,203.18c42.77-24.81,112.37-24.81,155.14,0,24.25,14,37.67,33.79,37.76,55.63a54.73,54.73,0,0,1-9.53,30.73c-6.29,9.35-15.55,17.87-27.58,24.81l-9.35,5.37L823.18,287l27.58-16.1c8-4.63,10.74-9.26,10.74-12s-2.87-7.59-11.11-12.31c-21-12.22-57.76-12.22-78.59,0L762.45,252l-56.64-32.67ZM216.23,1096.34,66.74,1010a40.31,40.31,0,0,1-20.46-35.26V927.5l170,98.12Zm0-124.13L66.74,885.84a40.09,40.09,0,0,1-20.46-35.27V803.46l170,98.12Zm0-124L66.74,761.81a40.34,40.34,0,0,1-20.46-35.27V679.33l170,98.12Zm0-124.13L66.64,637.77a40.46,40.46,0,0,1-20.36-35.36V555.29l170,98.12Zm170.23,470.6L262.51,1123V626.66L257.88,624l-95.8-55.26V423.39L386.46,553.63ZM570.38,802l-13.88-8v498.83L432.74,1221.3V580.47l226,131.26,1.85,142.37L591.21,814ZM1548,974.71a40.53,40.53,0,0,1-20.46,35.54l-524.65,304.91L892.32,1379.4a185.16,185.16,0,0,1-185.31.28l-104.23-60.17v-71.27L683.87,1295a231.15,231.15,0,0,0,231.78-.28l96.64-56.18,4.63-2.69v-5.37l-.09-32-.1-16-13.88,8-110.53,64.24A185.1,185.1,0,0,1,707,1255l-104.23-60.26v-71.18l81.09,46.74a231.19,231.19,0,0,0,231.78-.27l96.64-56.19,4.63-2.68v-5.28l-.09-32-.1-16.1-13.88,8L892.32,1130a185.16,185.16,0,0,1-185.31.28l-104.23-60.26V998.87l81.09,46.74a231.73,231.73,0,0,0,231.78-.28l96.64-56.18,4.63-2.69v-5.37l-.09-32-.1-16-13.88,8.06-110.53,64.14a185.16,185.16,0,0,1-185.31.28L602.78,945.36V874.18l70,40.36,2.13,1.3H675l8.79,5.08a232,232,0,0,0,231.88-.27L1548,553.26Z"/></g></g></svg>