<svg xmlns="http://www.w3.org/2000/svg" viewBox="0 0 1574.31 1432.28"><defs><style>.cls-1{fill:#b4a198;}.cls-2{fill:#010101;}</style></defs><g id="Layer_2" data-name="Layer 2"><g id="Layer_1-2" data-name="Layer 1"><path class="cls-1" d="M1531.17,395.47l-632.28-365a229,229,0,0,0-228.77.36L43,395.29A85.25,85.25,0,0,0,.83,459H.18L0,468.14V972H.64a84.77,84.77,0,0,0,42.5,64.8l632.19,365a229.45,229.45,0,0,0,228.86-.28l627.17-364.49a85.26,85.26,0,0,0,42.86-74.67V472.61a25.88,25.88,0,0,0,.09-2.64A85.39,85.39,0,0,0,1531.17,395.47ZM958,422.44c29,11,55.57,29.79,77.5,54.93a213.88,213.88,0,0,1,25.68,35.82,246.7,246.7,0,0,1,25.5,61.61,275.87,275.87,0,0,1,9.41,64.71,195,195,0,0,1-44,24.76,164.92,164.92,0,0,1-60.5,11.61c-32.81,0-64.8-9.87-93.23-28.06a155.72,155.72,0,0,1-13.53-9.32c-31-23.4-56.66-57.12-72.93-98.34-11-27.79-17.55-59-18.55-92.68C846.34,407.81,905.84,402.42,958,422.44Zm-265,140.38a167,167,0,0,1,27.7-13.07C754.3,673.69,867.63,764.9,1002.26,764.9a293.2,293.2,0,0,0,76.5-10.14L881.25,869.55c-3.75,2.2-7.22,4-10.69,5.67-3,1.55-6.13,3-9.69,4.48-2.56,1.09-4.76,1.91-7,2.83-2.1.73-4.29,1.55-6.4,2.28-2.46.82-4.84,1.56-7.31,2.2-3,.91-5.94,1.74-9.23,2.47-3,.72-6.12,1.37-9.69,1.92a178.74,178.74,0,0,1-19.1,2.37l-2.56.09-2.74.19c-2.29,0-4.84.09-7.31.09-3.11,0-6.22-.09-9.42-.19-2.92-.09-5.66-.36-8.31-.63s-4.94-.55-7.32-.92-4.93-.64-7.31-1.1c-5.11-.91-9.87-1.92-14.44-3.19l-1.18-.37h-.1c-3.84-1-7.22-2-10.23-3.11s-5.67-1.92-8.41-3c-2.38-.91-4.3-1.73-6.21-2.64-1.75-.73-3.3-1.38-4.76-2.11-1.64-.73-2.93-1.37-4.38-2.1l-.19-.18-.27-.09a35.05,35.05,0,0,1-4-2.1l-.18-.1-.27-.18c-1.37-.64-2.65-1.37-4-2.1l-2.37-188.64-.09-5.22-4.48-2.55-94.69-54.84ZM213.51,1082.41,66,997.23a39.65,39.65,0,0,1-20.2-34.91v-9.14H45.7V915.8l167.81,97Zm0-122.47L66,874.76a40,40,0,0,1-20.2-34.91v-9.14H45.7V793.23l167.81,97Zm0-122.56L66,752.29a40.08,40.08,0,0,1-20.2-35v-9.14H45.7V670.76l167.81,97Zm0-122.47L66,629.72a40,40,0,0,1-20.2-34.91v-9.14H45.7V548.2L138.93,602l74.58,43.14Zm168.17,464.57L259.2,1108.83V618.21l-4.57-2.56-94.5-54.11V418.05l221.55,128.6ZM549.57,784v492.44l-122.2-70.56V573.15L650.66,702.66l1.82,140.66L563.28,792Zm979,178.4a39.65,39.65,0,0,1-20.11,35.1L881.25,1362a183,183,0,0,1-183.07.27l-102.91-59.4v-70.29l80.06,46.16a229.45,229.45,0,0,0,228.86-.28l95.15-55.29,4.57-2.66V1167.6l-13.71,8-109,63.34a183,183,0,0,1-183.07.27l-102.91-59.41v-70.28l80.06,46.15a229.13,229.13,0,0,0,228.86-.36l95.15-55.2,4.57-2.65v-52.92l-13.71,7.94-109,63.34a183,183,0,0,1-183.07.28l-102.91-59.41V986.27l80.06,46.24a229.13,229.13,0,0,0,228.86-.36l95.15-55.21,4.57-2.65V921.37l-13.71,8-109,63.33a183,183,0,0,1-183.07.28L595.27,933.53V863.15l80.06,46.16c3.39,1.92,6.67,3.74,10,5.39,6.85,3.47,13.8,6.58,20.65,9.32a14.38,14.38,0,0,0,2.1.82c1.19.46,2.29.92,3.39,1.29,1.46.54,3.37,1.28,5.29,1.91,3,1,5.95,1.92,8.87,2.75a231,231,0,0,0,27,6.12c3.11.46,6.13.92,9.14,1.28s6.31.73,9.42.91c2.83.28,6,.46,9.14.55s6.12.18,9.14.18A227.69,227.69,0,0,0,904.19,909c134.17-78.14,542.17-315.87,624.33-364.12Z"/><path class="cls-1" d="M1061.21,513.19c-11.33-10.87-20.2-23.3-25.68-35.82A213.88,213.88,0,0,1,1061.21,513.19Z"/><path class="cls-2" d="M1061.21,513.19c-11.33-10.87-20.2-23.3-25.68-35.82A213.88,213.88,0,0,1,1061.21,513.19Z"/><path class="cls-1" d="M1061.21,513.19c-11.33-10.87-20.2-23.3-25.68-35.82A213.88,213.88,0,0,1,1061.21,513.19Z"/><path class="cls-1" d="M1007.83,621.23a40.64,40.64,0,0,1-8.59,12.52c-19.28,19.37-57.21,18.55-92.76-4-31.44-19.92-52.19-51.27-54.75-78.87a52.38,52.38,0,0,1,3.75-26.23c14-31.35,59.4-35.19,101.45-8.5S1021.73,589.88,1007.83,621.23Z"/></g></g></svg>