<?xml version="1.0" encoding="iso-8859-1"?>
<!-- Generator: Adobe Illustrator 19.0.0, SVG Export Plug-In . SVG Version: 6.00 Build 0)  -->
<svg version="1.1" id="Layer_1" xmlns="http://www.w3.org/2000/svg" xmlns:xlink="http://www.w3.org/1999/xlink" x="0px" y="0px"
	 viewBox="0 0 493.6 493.6" style="enable-background:new 0 0 493.6 493.6;" xml:space="preserve">
<path style="fill:#202f33;" d="M397.6,135.6c-3.2,2.4-8,2.4-11.2-0.8c-0.8-0.8-1.6-1.6-1.6-3.2c-1.6-4-0.8-8,3.2-10.4L442.4,82
	L31.2,186l139.2,91.2l136.8-98.4c1.6-0.8,3.2-1.6,4.8-1.6c2.4,0,4.8,0.8,6.4,2.4l0,0c4,4,3.2,10.4-0.8,13.6l-134.4,96L288,415.6
	l171.2-324L397.6,135.6z M372,154l-28.8,20.8c-3.2,2.4-8,2.4-11.2-0.8l0,0c-0.8-0.8-1.6-1.6-1.6-3.2c-1.6-4-0.8-8,3.2-10.4
	l28.8-20.8c1.6-0.8,3.2-1.6,4.8-1.6c2.4,0,4.8,0.8,6.4,2.4l0,0C376.8,144.4,376,150.8,372,154z"/>
<polygon style="fill:#E4C6A1;" points="175.2,306.8 214.4,354 157.6,378.8 "/>
<g>
	<path style="fill:#E4C6A1;" d="M372.8,140.4L372.8,140.4c4,4,3.2,10.4-0.8,13.6l-28.8,20.8c-3.2,2.4-8,2.4-11.2-0.8l0,0
		c-0.8-0.8-1.6-1.6-1.6-3.2c-1.6-4-0.8-8,3.2-10.4l28.8-20.8c1.6-0.8,3.2-1.6,4.8-1.6C368.8,138,371.2,138.8,372.8,140.4z"/>
	<path style="fill:#E4C6A1;" d="M214.4,354l-39.2-47.2l-16.8,72L214.4,354z M459.2,90.8l-62.4,44.8c-3.2,2.4-8,2.4-11.2-0.8
		c-0.8-0.8-1.6-1.6-1.6-3.2c-1.6-4,0-8,3.2-10.4L441.6,82L30.4,186l139.2,91.2l136.8-98.4c1.6-0.8,3.2-1.6,4.8-1.6
		c2.4,0,4.8,0.8,6.4,2.4l0,0c4,4,3.2,10.4-0.8,13.6l-134.4,96L288,415.6L459.2,90.8z M492.8,58.8c0.8,1.6,0.8,2.4,0.8,4
		c0,0.8,0,1.6-0.8,2.4l0,0c0,0,0,0.8-0.8,0.8L297.6,435.6c-1.6,2.4-4,4-7.2,4.8h-0.8c-2.4,0-4.8-0.8-6.4-3.2l-57.6-68.8L148,402.8
		c-3.2,1.6-6.4,0.8-8.8-1.6c-2.4-2.4-4-5.6-3.2-8.8l24-100.8L4,189.2c-2.4-1.6-4-4.8-4-8.8c0.8-3.2,3.2-6.4,6.4-7.2l476-120
		c0.8,0,1.6,0,2.4,0c1.6,0,2.4,0,3.2,0.8c0.8,0,0.8,0.8,1.6,0.8c0.8,0.8,2.4,1.6,2.4,3.2C492.8,58,492.8,58.8,492.8,58.8z"/>
</g>
<g>
	<path style="fill:#D9CDC1;" d="M441.6,82l-238.4,60c36-7.2,145.6-22.4,195.2-29.6L441.6,82z"/>
	<polygon style="fill:#D9CDC1;" points="459.2,90.8 419.2,119.6 310.4,373.2 	"/>
</g>
</svg>
